<svg height="480pt" viewBox="0 0 480 480" width="480pt" xmlns="http://www.w3.org/2000/svg" xmlns:xlink="http://www.w3.org/1999/xlink"><linearGradient id="a"><stop offset="0" stop-color="#006df0"/><stop offset="1" stop-color="#00e7f0"/></linearGradient><linearGradient id="b" gradientUnits="userSpaceOnUse" x1="187.728" x2="169.768" xlink:href="#a" y1="466.816" y2="-9.112"/><linearGradient id="c" gradientUnits="userSpaceOnUse" x1="222.376" x2="204.416" xlink:href="#a" y1="465.504" y2="-10.424"/><linearGradient id="d" gradientUnits="userSpaceOnUse" x1="273.648" x2="255.688" xlink:href="#a" y1="463.576" y2="-12.36"/><linearGradient id="e" gradientUnits="userSpaceOnUse" x1="345.544" x2="327.584" xlink:href="#a" y1="460.856" y2="-15.072"/><linearGradient id="f" gradientUnits="userSpaceOnUse" x1="274.848" x2="256.888" xlink:href="#a" y1="463.528" y2="-12.4"/><linearGradient id="g" gradientUnits="userSpaceOnUse" x1="346.744" x2="328.792" xlink:href="#a" y1="460.816" y2="-15.112"/><linearGradient id="h" gradientUnits="userSpaceOnUse" x1="272.44" x2="254.48" xlink:href="#a" y1="463.616" y2="-12.312"/><linearGradient id="i" gradientUnits="userSpaceOnUse" x1="344.336" x2="326.376" xlink:href="#a" y1="460.904" y2="-15.024"/><linearGradient id="j" gradientUnits="userSpaceOnUse" x1="271.232" x2="253.272" xlink:href="#a" y1="463.664" y2="-12.264"/><linearGradient id="k" gradientUnits="userSpaceOnUse" x1="343.128" x2="325.168" xlink:href="#a" y1="460.952" y2="-14.976"/><linearGradient id="l" gradientUnits="userSpaceOnUse" x1="127.736" x2="109.776" xlink:href="#a" y1="469.08" y2="-6.848"/><linearGradient id="m" gradientUnits="userSpaceOnUse" x1="69.56" x2="51.6" xlink:href="#a" y1="471.272" y2="-4.656"/><linearGradient id="n" gradientUnits="userSpaceOnUse" x1="125.48" x2="107.52" xlink:href="#a" y1="469.16" y2="-6.768"/><linearGradient id="o" gradientUnits="userSpaceOnUse" x1="181.4" x2="163.44" xlink:href="#a" y1="467.056" y2="-8.872"/><linearGradient id="p" gradientUnits="userSpaceOnUse" x1="67.448" x2="49.488" xlink:href="#a" y1="471.352" y2="-4.576"/><linearGradient id="q" gradientUnits="userSpaceOnUse" x1="123.368" x2="105.408" xlink:href="#a" y1="469.24" y2="-6.688"/><linearGradient id="r" gradientUnits="userSpaceOnUse" x1="179.288" x2="161.328" xlink:href="#a" y1="467.136" y2="-8.792"/><linearGradient id="s" gradientUnits="userSpaceOnUse" x1="65.336" x2="47.376" xlink:href="#a" y1="471.432" y2="-4.496"/><linearGradient id="t" gradientUnits="userSpaceOnUse" x1="121.256" x2="103.296" xlink:href="#a" y1="469.32" y2="-6.608"/><linearGradient id="u" gradientUnits="userSpaceOnUse" x1="177.176" x2="159.216" xlink:href="#a" y1="467.216" y2="-8.712"/><linearGradient id="v" gradientUnits="userSpaceOnUse" x1="383.784" x2="365.832" xlink:href="#a" y1="459.416" y2="-16.512"/><path d="m184 288c-44.183594 0-80 35.816406-80 80s35.816406 80 80 80 80-35.816406 80-80c-.046875-44.164062-35.835938-79.953125-80-80zm0 144c-35.347656 0-64-28.652344-64-64s28.652344-64 64-64 64 28.652344 64 64c-.039062 35.328125-28.671875 63.960938-64 64zm0 0" fill="url(#b)"/><path d="m184 344c9.769531 0 16 4.734375 16 8h16c0-11.367188-10.070312-20.574219-24-23.199219v-8.800781h-16v8.800781c-13.929688 2.605469-24 11.816407-24 23.199219 0 13.464844 14.054688 24 32 24 9.769531 0 16 4.734375 16 8s-6.230469 8-16 8-16-4.734375-16-8h-16c0 11.367188 10.070312 20.574219 24 23.199219v8.800781h16v-8.800781c13.929688-2.605469 24-11.816407 24-23.199219 0-13.464844-14.054688-24-32-24-9.769531 0-16-4.734375-16-8s6.230469-8 16-8zm0 0" fill="url(#b)"/><path d="m408 464h-336v-192h128c13.253906 0 24-10.746094 24-24v-200h88v96h96v112h16v-123.3125l-100.6875-100.6875h-99.3125v-8c0-13.253906-10.746094-24-24-24h-176c-13.253906 0-24 10.746094-24 24v224c0 13.253906 10.746094 24 24 24h32v208h368v-112h-16zm-80-404.6875 68.6875 68.6875h-68.6875zm-312 188.6875v-224c0-4.417969 3.582031-8 8-8h176c4.417969 0 8 3.582031 8 8v224c0 4.417969-3.582031 8-8 8h-176c-4.417969 0-8-3.582031-8-8zm0 0" fill="url(#c)"/><path d="m256 200h16v16h-16zm0 0" fill="url(#d)"/><path d="m288 200h96v16h-96zm0 0" fill="url(#e)"/><path d="m256 168h16v16h-16zm0 0" fill="url(#f)"/><path d="m288 168h96v16h-96zm0 0" fill="url(#g)"/><path d="m256 232h16v16h-16zm0 0" fill="url(#h)"/><path d="m288 232h96v16h-96zm0 0" fill="url(#i)"/><path d="m256 264h16v16h-16zm0 0" fill="url(#j)"/><path d="m288 264h96v16h-96zm0 0" fill="url(#k)"/><path d="m200 24h-176v56h176zm-16 40h-144v-24h144zm0 0" fill="url(#l)"/><path d="m64 88h-16c-8.835938 0-16 7.164062-16 16v16c0 8.835938 7.164062 16 16 16h16c8.835938 0 16-7.164062 16-16v-16c0-8.835938-7.164062-16-16-16zm-16 32v-16h16v16zm0 0" fill="url(#m)"/><path d="m120 88h-16c-8.835938 0-16 7.164062-16 16v16c0 8.835938 7.164062 16 16 16h16c8.835938 0 16-7.164062 16-16v-16c0-8.835938-7.164062-16-16-16zm-16 32v-16h16v16zm0 0" fill="url(#n)"/><path d="m176 88h-16c-8.835938 0-16 7.164062-16 16v16c0 8.835938 7.164062 16 16 16h16c8.835938 0 16-7.164062 16-16v-16c0-8.835938-7.164062-16-16-16zm-16 32v-16h16v16zm0 0" fill="url(#o)"/><path d="m64 144h-16c-8.835938 0-16 7.164062-16 16v16c0 8.835938 7.164062 16 16 16h16c8.835938 0 16-7.164062 16-16v-16c0-8.835938-7.164062-16-16-16zm-16 32v-16h16v16zm0 0" fill="url(#p)"/><path d="m120 144h-16c-8.835938 0-16 7.164062-16 16v16c0 8.835938 7.164062 16 16 16h16c8.835938 0 16-7.164062 16-16v-16c0-8.835938-7.164062-16-16-16zm-16 32v-16h16v16zm0 0" fill="url(#q)"/><path d="m176 144h-16c-8.835938 0-16 7.164062-16 16v16c0 8.835938 7.164062 16 16 16h16c8.835938 0 16-7.164062 16-16v-16c0-8.835938-7.164062-16-16-16zm-16 32v-16h16v16zm0 0" fill="url(#r)"/><path d="m64 200h-16c-8.835938 0-16 7.164062-16 16v16c0 8.835938 7.164062 16 16 16h16c8.835938 0 16-7.164062 16-16v-16c0-8.835938-7.164062-16-16-16zm-16 32v-16h16v16zm0 0" fill="url(#s)"/><path d="m120 200h-16c-8.835938 0-16 7.164062-16 16v16c0 8.835938 7.164062 16 16 16h16c8.835938 0 16-7.164062 16-16v-16c0-8.835938-7.164062-16-16-16zm-16 32v-16h16v16zm0 0" fill="url(#t)"/><path d="m176 200h-16c-8.835938 0-16 7.164062-16 16v16c0 8.835938 7.164062 16 16 16h16c8.835938 0 16-7.164062 16-16v-16c0-8.835938-7.164062-16-16-16zm-16 32v-16h16v16zm0 0" fill="url(#u)"/><path d="m472.734375 255.265625c-9.496094-9.066406-24.4375-9.066406-33.933594 0l-137.144531 137.140625c-.664062.671875-1.207031 1.453125-1.601562 2.3125l-19.3125 41.9375c-1.394532 3.039062-.75 6.628906 1.617187 8.992188 2.363281 2.367187 5.953125 3.011718 8.992187 1.617187l41.9375-19.3125c.859376-.394531 1.640626-.933594 2.3125-1.601563l137.132813-137.144531c9.375-9.371093 9.375-24.570312 0-33.941406zm-147.445313 158.75-20.960937 9.65625 9.65625-20.960937 102.253906-102.261719 11.3125 11.3125zm113.597657-113.601563-11.3125-11.308593 5.601562-5.601563 11.3125 11.3125zm22.5625-22.558593-5.65625 5.65625-11.3125-11.3125 5.664062-5.65625c3.160157-3.023438 8.140625-3.023438 11.304688 0 3.121093 3.125 3.121093 8.1875 0 11.3125zm0 0" fill="url(#v)"/></svg>