<svg height="512" viewBox="0 0 64 64" width="512" xmlns="http://www.w3.org/2000/svg" xmlns:xlink="http://www.w3.org/1999/xlink"><linearGradient id="New_Gradient_Swatch_3" gradientUnits="userSpaceOnUse" x1="13" x2="13" y1="64.369" y2="1.857"><stop offset="0" stop-color="#006df0"/><stop offset="1" stop-color="#00e7f0"/></linearGradient><linearGradient id="New_Gradient_Swatch_3-2" x1="17" x2="17" xlink:href="#New_Gradient_Swatch_3" y1="64.369" y2="1.857"/><linearGradient id="New_Gradient_Swatch_3-3" x1="21" x2="21" xlink:href="#New_Gradient_Swatch_3" y1="64.369" y2="1.857"/><linearGradient id="New_Gradient_Swatch_3-4" x1="15" x2="15" xlink:href="#New_Gradient_Swatch_3" y1="64.369" y2="1.857"/><linearGradient id="New_Gradient_Swatch_3-5" x1="20.5" x2="20.5" xlink:href="#New_Gradient_Swatch_3" y1="64.369" y2="1.857"/><linearGradient id="New_Gradient_Swatch_3-6" x1="31.5" x2="31.5" xlink:href="#New_Gradient_Swatch_3" y1="64.369" y2="1.857"/><linearGradient id="New_Gradient_Swatch_3-7" x1="26" x2="26" xlink:href="#New_Gradient_Swatch_3" y1="64.369" y2="1.857"/><linearGradient id="New_Gradient_Swatch_3-8" x1="22" x2="22" xlink:href="#New_Gradient_Swatch_3" y1="64.369" y2="1.857"/><linearGradient id="New_Gradient_Swatch_3-9" x1="28" x2="28" xlink:href="#New_Gradient_Swatch_3" y1="64.369" y2="1.857"/><linearGradient id="New_Gradient_Swatch_3-10" x1="29" x2="29" xlink:href="#New_Gradient_Swatch_3" y1="64.369" y2="1.857"/><linearGradient id="New_Gradient_Swatch_3-11" x1="45.5" x2="45.5" xlink:href="#New_Gradient_Swatch_3" y1="64.369" y2="1.857"/><linearGradient id="New_Gradient_Swatch_3-12" x1="24" x2="24" xlink:href="#New_Gradient_Swatch_3" y1="64.369" y2="1.857"/><linearGradient id="New_Gradient_Swatch_3-13" x1="33" x2="33" xlink:href="#New_Gradient_Swatch_3" y1="64.369" y2="1.857"/><linearGradient id="New_Gradient_Swatch_3-14" x1="43" x2="43" xlink:href="#New_Gradient_Swatch_3" y1="64.369" y2="1.857"/><linearGradient id="New_Gradient_Swatch_3-17" x1="38" x2="38" xlink:href="#New_Gradient_Swatch_3" y1="64.369" y2="1.857"/><linearGradient id="New_Gradient_Swatch_3-18" x1="32" x2="32" xlink:href="#New_Gradient_Swatch_3" y1="64.369" y2="1.857"/><linearGradient id="New_Gradient_Swatch_3-20" x1="58" x2="58" xlink:href="#New_Gradient_Swatch_3" y1="64.369" y2="1.857"/><linearGradient id="New_Gradient_Swatch_3-21" x1="6" x2="6" xlink:href="#New_Gradient_Swatch_3" y1="64.369" y2="1.857"/><g id="Data_code" data-name="Data code"><path d="m12 17h2v2h-2z" fill="url(#New_Gradient_Swatch_3)"/><path d="m16 17h2v2h-2z" fill="url(#New_Gradient_Swatch_3-2)"/><path d="m20 17h2v2h-2z" fill="url(#New_Gradient_Swatch_3-3)"/><path d="m15 26a1 1 0 0 0 -1 1v16a1 1 0 0 0 2 0v-16a1 1 0 0 0 -1-1z" fill="url(#New_Gradient_Swatch_3-4)"/><path d="m22 31a1 1 0 0 0 .556-1.832l-1.756-1.168 1.752-1.168a1 1 0 1 0 -1.11-1.664l-3 2a1 1 0 0 0 0 1.664l3 2a1 1 0 0 0 .558.168z" fill="url(#New_Gradient_Swatch_3-5)"/><path d="m29.168 30.555a1 1 0 0 0 1.387.277l3-2a1 1 0 0 0 0-1.664l-3-2a1 1 0 1 0 -1.11 1.664l1.755 1.168-1.752 1.168a1 1 0 0 0 -.28 1.387z" fill="url(#New_Gradient_Swatch_3-6)"/><path d="m24.684 31.949a1 1 0 0 0 1.265-.633l2-6a1 1 0 0 0 -1.9-.632l-2 6a1 1 0 0 0 .635 1.265z" fill="url(#New_Gradient_Swatch_3-7)"/><path d="m19 33h6v2h-6z" fill="url(#New_Gradient_Swatch_3-8)"/><path d="m27 33h2v2h-2z" fill="url(#New_Gradient_Swatch_3-9)"/><path d="m23 36h12v2h-12z" fill="url(#New_Gradient_Swatch_3-10)"/><path d="m41 36h9v2h-9z" fill="url(#New_Gradient_Swatch_3-11)"/><path d="m23 39h2v2h-2z" fill="url(#New_Gradient_Swatch_3-12)"/><path d="m27 39h12v2h-12z" fill="url(#New_Gradient_Swatch_3-13)"/><path d="m41 39h4v2h-4z" fill="url(#New_Gradient_Swatch_3-14)"/><path d="m19 42h6v2h-6z" fill="url(#New_Gradient_Swatch_3-8)"/><path d="m27 42h2v2h-2z" fill="url(#New_Gradient_Swatch_3-9)"/><path d="m37 36h2v2h-2z" fill="url(#New_Gradient_Swatch_3-17)"/><path d="m55 10h6a1 1 0 0 0 1-1v-6a1 1 0 0 0 -1-1h-6a1 1 0 0 0 -1 1v2h-5a3 3 0 0 0 -3 3v6h-13v-4h2a1 1 0 0 0 1-1v-6a1 1 0 0 0 -1-1h-6a1 1 0 0 0 -1 1v6a1 1 0 0 0 1 1h2v4h-13v-6a3 3 0 0 0 -3-3h-5v-2a1 1 0 0 0 -1-1h-6a1 1 0 0 0 -1 1v6a1 1 0 0 0 1 1h6a1 1 0 0 0 1-1v-2h5a1 1 0 0 1 1 1v6h-5a3 3 0 0 0 -3 3v30a3 3 0 0 0 3 3h5v6a1 1 0 0 1 -1 1h-5v-2a1 1 0 0 0 -1-1h-6a1 1 0 0 0 -1 1v6a1 1 0 0 0 1 1h6a1 1 0 0 0 1-1v-2h5a3 3 0 0 0 3-3v-6h13v4h-2a1 1 0 0 0 -1 1v6a1 1 0 0 0 1 1h6a1 1 0 0 0 1-1v-6a1 1 0 0 0 -1-1h-2v-4h13v6a3 3 0 0 0 3 3h5v2a1 1 0 0 0 1 1h6a1 1 0 0 0 1-1v-6a1 1 0 0 0 -1-1h-6a1 1 0 0 0 -1 1v2h-5a1 1 0 0 1 -1-1v-6h5a3 3 0 0 0 3-3v-30a3 3 0 0 0 -3-3h-5v-6a1 1 0 0 1 1-1h5v2a1 1 0 0 0 1 1zm-25-6h4v4h-4zm-22 4h-4v-4h4zm0 52h-4v-4h4zm26 0h-4v-4h4zm22-4h4v4h-4zm-3-8h-42a1 1 0 0 1 -1-1v-25h44v25a1 1 0 0 1 -1 1zm1-31v3h-44v-3a1 1 0 0 1 1-1h42a1 1 0 0 1 1 1zm2-13h4v4h-4z" fill="url(#New_Gradient_Swatch_3-18)"/><path d="m31 5h2v2h-2z" fill="url(#New_Gradient_Swatch_3-18)"/><path d="m57 5h2v2h-2z" fill="url(#New_Gradient_Swatch_3-20)"/><path d="m5 5h2v2h-2z" fill="url(#New_Gradient_Swatch_3-21)"/><path d="m31 57h2v2h-2z" fill="url(#New_Gradient_Swatch_3-18)"/><path d="m57 57h2v2h-2z" fill="url(#New_Gradient_Swatch_3-20)"/><path d="m5 57h2v2h-2z" fill="url(#New_Gradient_Swatch_3-21)"/></g></svg>