<svg height="512" viewBox="0 0 64 64" width="512" xmlns="http://www.w3.org/2000/svg" xmlns:xlink="http://www.w3.org/1999/xlink"><linearGradient id="New_Gradient_Swatch_3" gradientUnits="userSpaceOnUse" x1="32" x2="32" y1="63.786" y2="-1.304"><stop offset="0" stop-color="#006df0"/><stop offset="1" stop-color="#00e7f0"/></linearGradient><linearGradient id="New_Gradient_Swatch_3-2" x1="43" x2="43" xlink:href="#New_Gradient_Swatch_3" y1="63.786" y2="-1.304"/><linearGradient id="New_Gradient_Swatch_3-3" x1="9" x2="9" xlink:href="#New_Gradient_Swatch_3" y1="63.786" y2="-1.304"/><linearGradient id="New_Gradient_Swatch_3-4" x1="16" x2="16" xlink:href="#New_Gradient_Swatch_3" y1="63.786" y2="-1.304"/><linearGradient id="New_Gradient_Swatch_3-5" x1="23" x2="23" xlink:href="#New_Gradient_Swatch_3" y1="63.786" y2="-1.304"/><linearGradient id="New_Gradient_Swatch_3-6" x1="19" x2="19" xlink:href="#New_Gradient_Swatch_3" y1="63.786" y2="-1.304"/><linearGradient id="New_Gradient_Swatch_3-10" x1="48" x2="48" xlink:href="#New_Gradient_Swatch_3" y1="63.786" y2="-1.304"/><g id="Template"><path d="m59 2h-54a3 3 0 0 0 -3 3v54a3 3 0 0 0 3 3h54a3 3 0 0 0 3-3v-54a3 3 0 0 0 -3-3zm-55 3a1 1 0 0 1 1-1h54a1 1 0 0 1 1 1v9h-56zm56 54a1 1 0 0 1 -1 1h-54a1 1 0 0 1 -1-1v-43h56z" fill="url(#New_Gradient_Swatch_3)"/><path d="m55 12h-24a3 3 0 0 1 0-6h24a3 3 0 0 1 0 6zm-24-4a1 1 0 0 0 0 2h24a1 1 0 0 0 0-2z" fill="url(#New_Gradient_Swatch_3-2)"/><path d="m9 12a3 3 0 1 1 3-3 3 3 0 0 1 -3 3zm0-4a1 1 0 1 0 1 1 1 1 0 0 0 -1-1z" fill="url(#New_Gradient_Swatch_3-3)"/><path d="m16 12a3 3 0 1 1 3-3 3 3 0 0 1 -3 3zm0-4a1 1 0 1 0 1 1 1 1 0 0 0 -1-1z" fill="url(#New_Gradient_Swatch_3-4)"/><path d="m23 12a3 3 0 1 1 3-3 3 3 0 0 1 -3 3zm0-4a1 1 0 1 0 1 1 1 1 0 0 0 -1-1z" fill="url(#New_Gradient_Swatch_3-5)"/><path d="m27 34h-16a1 1 0 0 1 -1-1v-12a1 1 0 0 1 1-1h16a1 1 0 0 1 1 1v12a1 1 0 0 1 -1 1zm-15-2h14v-10h-14z" fill="url(#New_Gradient_Swatch_3-6)"/><g fill="url(#New_Gradient_Swatch_3-2)"><path d="m53 24h-20a1 1 0 0 1 0-2h20a1 1 0 0 1 0 2z"/><path d="m53 28h-20a1 1 0 0 1 0-2h20a1 1 0 0 1 0 2z"/><path d="m53 32h-20a1 1 0 0 1 0-2h20a1 1 0 0 1 0 2z"/></g><path d="m53 42h-10a1 1 0 0 1 -1-1v-4a1 1 0 0 1 1-1h10a1 1 0 0 1 1 1v4a1 1 0 0 1 -1 1zm-9-2h8v-2h-8z" fill="url(#New_Gradient_Swatch_3-10)"/><path d="m21 42h-10a1 1 0 0 1 -1-1v-4a1 1 0 0 1 1-1h10a1 1 0 0 1 1 1v4a1 1 0 0 1 -1 1zm-9-2h8v-2h-8z" fill="url(#New_Gradient_Swatch_3-4)"/><path d="m37 42h-10a1 1 0 0 1 -1-1v-4a1 1 0 0 1 1-1h10a1 1 0 0 1 1 1v4a1 1 0 0 1 -1 1zm-9-2h8v-2h-8z" fill="url(#New_Gradient_Swatch_3)"/><path d="m53 56h-42a1 1 0 0 1 -1-1v-10a1 1 0 0 1 1-1h42a1 1 0 0 1 1 1v10a1 1 0 0 1 -1 1zm-41-2h40v-8h-40z" fill="url(#New_Gradient_Swatch_3)"/></g></svg>