<svg height="512" viewBox="0 0 64 64" width="512" xmlns="http://www.w3.org/2000/svg" xmlns:xlink="http://www.w3.org/1999/xlink"><linearGradient id="New_Gradient_Swatch_3" gradientUnits="userSpaceOnUse" x1="33.164" x2="30.911" y1="66.33" y2="-.118"><stop offset="0" stop-color="#006df0"/><stop offset="1" stop-color="#00e7f0"/></linearGradient><linearGradient id="New_Gradient_Swatch_3-2" x1="44.93" x2="42.677" xlink:href="#New_Gradient_Swatch_3" y1="65.931" y2="-.517"/><linearGradient id="New_Gradient_Swatch_3-3" x1="10.969" x2="8.716" xlink:href="#New_Gradient_Swatch_3" y1="67.083" y2=".635"/><linearGradient id="New_Gradient_Swatch_3-4" x1="17.961" x2="15.708" xlink:href="#New_Gradient_Swatch_3" y1="66.846" y2=".398"/><linearGradient id="New_Gradient_Swatch_3-5" x1="24.953" x2="22.7" xlink:href="#New_Gradient_Swatch_3" y1="66.609" y2=".161"/><linearGradient id="New_Gradient_Swatch_3-6" x1="32.893" x2="30.64" xlink:href="#New_Gradient_Swatch_3" y1="66.34" y2="-.109"/><linearGradient id="New_Gradient_Swatch_3-7" x1="32.961" x2="30.708" xlink:href="#New_Gradient_Swatch_3" y1="66.337" y2="-.111"/><g id="Web_malware" data-name="Web malware"><path d="m59 2h-54a3 3 0 0 0 -3 3v54a3 3 0 0 0 3 3h54a3 3 0 0 0 3-3v-54a3 3 0 0 0 -3-3zm-55 3a1 1 0 0 1 1-1h54a1 1 0 0 1 1 1v9h-56zm56 54a1 1 0 0 1 -1 1h-54a1 1 0 0 1 -1-1v-43h56z" fill="url(#New_Gradient_Swatch_3)"/><path d="m57 6h-28a1 1 0 0 0 -1 1v4a1 1 0 0 0 1 1h28a1 1 0 0 0 1-1v-4a1 1 0 0 0 -1-1zm-1 4h-26v-2h26z" fill="url(#New_Gradient_Swatch_3-2)"/><path d="m9 6a3 3 0 1 0 3 3 3 3 0 0 0 -3-3zm0 4a1 1 0 1 1 1-1 1 1 0 0 1 -1 1z" fill="url(#New_Gradient_Swatch_3-3)"/><path d="m16 6a3 3 0 1 0 3 3 3 3 0 0 0 -3-3zm0 4a1 1 0 1 1 1-1 1 1 0 0 1 -1 1z" fill="url(#New_Gradient_Swatch_3-4)"/><path d="m23 6a3 3 0 1 0 3 3 3 3 0 0 0 -3-3zm0 4a1 1 0 1 1 1-1 1 1 0 0 1 -1 1z" fill="url(#New_Gradient_Swatch_3-5)"/><path d="m25.287 43.877a12.831 12.831 0 0 0 .424 1.561l-4.083 1.633a1 1 0 0 0 -.6 1.172l1 4a1 1 0 0 0 .972.757.976.976 0 0 0 .244-.03 1 1 0 0 0 .727-1.213l-.789-3.157 3.332-1.333c1.273 2.289 3.238 3.733 5.486 3.733s4.213-1.444 5.486-3.729l3.332 1.329-.788 3.153a1 1 0 0 0 .727 1.213.976.976 0 0 0 .243.034 1 1 0 0 0 .969-.757l1-4a1 1 0 0 0 -.6-1.172l-4.083-1.633a12.831 12.831 0 0 0 .424-1.561l3.792-.758 2.638 4.4a1 1 0 0 0 1.714-1.03l-3-5a1 1 0 0 0 -1.054-.469l-3.831.766c.014-.26.027-.52.027-.786a14.686 14.686 0 0 0 -.177-2.252l3.936-1.575 3.534 3.534a1 1 0 0 0 1.414-1.414l-4-4a1 1 0 0 0 -1.079-.222l-4.267 1.707a11.409 11.409 0 0 0 -.657-1.638l4.864-3.313a1 1 0 0 0 .436-.827v-5a1 1 0 0 0 -2 0v4.471l-4.373 2.979a7.094 7.094 0 0 0 -1.8-1.623 3.945 3.945 0 0 0 .618-4.827 3.932 3.932 0 0 0 .555-2 4 4 0 0 0 -1.016-2.667 1 1 0 1 0 -1.491 1.334 2 2 0 0 1 .507 1.333 1.958 1.958 0 0 1 -.084.511 3.848 3.848 0 0 0 -3.832 0 1.958 1.958 0 0 1 -.084-.511 2 2 0 0 1 .507-1.333 1 1 0 1 0 -1.491-1.334 4 4 0 0 0 -1.016 2.667 3.932 3.932 0 0 0 .555 2 3.945 3.945 0 0 0 .618 4.825 7.094 7.094 0 0 0 -1.8 1.623l-4.373-2.977v-4.471a1 1 0 0 0 -2 0v5a1 1 0 0 0 .437.827l4.863 3.313a11.409 11.409 0 0 0 -.662 1.638l-4.267-1.707a1 1 0 0 0 -1.079.222l-4 4a1 1 0 1 0 1.414 1.414l3.534-3.534 3.936 1.575a14.686 14.686 0 0 0 -.176 2.252c0 .266.013.526.027.786l-3.827-.766a1 1 0 0 0 -1.053.465l-3 5a1 1 0 1 0 1.714 1.03l2.638-4.4zm11.713-2.877c0 3.79-1.749 7.066-4 7.831v-15.662c2.251.765 4 4.041 4 7.831zm-7-12a2 2 0 1 1 2 2 2 2 0 0 1 -2-2zm1 4.169v15.662c-2.251-.765-4-4.041-4-7.831s1.749-7.066 4-7.831z" fill="url(#New_Gradient_Swatch_3-6)"/><path d="m32 58a20 20 0 1 0 -20-20 20.023 20.023 0 0 0 20 20zm0-38a18 18 0 1 1 -18 18 18.021 18.021 0 0 1 18-18z" fill="url(#New_Gradient_Swatch_3-7)"/></g></svg>