<svg height="512" viewBox="0 0 64 64" width="512" xmlns="http://www.w3.org/2000/svg" xmlns:xlink="http://www.w3.org/1999/xlink"><linearGradient id="New_Gradient_Swatch_3" gradientUnits="userSpaceOnUse" x1="27" x2="27" y1="64.275" y2=".924"><stop offset="0" stop-color="#006df0"/><stop offset="1" stop-color="#00e7f0"/></linearGradient><linearGradient id="New_Gradient_Swatch_3-2" x1="39.805" x2="39.805" xlink:href="#New_Gradient_Swatch_3" y1="64.275" y2=".924"/><linearGradient id="New_Gradient_Swatch_3-3" x1="41.125" x2="41.125" xlink:href="#New_Gradient_Swatch_3" y1="64.275" y2=".924"/><linearGradient id="New_Gradient_Swatch_3-5" x1="13" x2="13" xlink:href="#New_Gradient_Swatch_3" y1="64.275" y2=".924"/><linearGradient id="New_Gradient_Swatch_3-6" x1="24" x2="24" xlink:href="#New_Gradient_Swatch_3" y1="64.275" y2=".924"/><linearGradient id="New_Gradient_Swatch_3-7" x1="23.5" x2="23.5" xlink:href="#New_Gradient_Swatch_3" y1="64.275" y2=".924"/><linearGradient id="New_Gradient_Swatch_3-8" x1="21" x2="21" xlink:href="#New_Gradient_Swatch_3" y1="64.275" y2=".924"/><linearGradient id="New_Gradient_Swatch_3-9" x1="18" x2="18" xlink:href="#New_Gradient_Swatch_3" y1="64.275" y2=".924"/><g id="Data_mining" data-name="Data mining"><path d="m18 56h-11v-52h40v21a1 1 0 0 0 2 0v-22a1 1 0 0 0 -1-1h-42a1 1 0 0 0 -1 1v54a1 1 0 0 0 1 1h12a1 1 0 0 0 0-2z" fill="url(#New_Gradient_Swatch_3)"/><path d="m55.467 37.847.018-.019a1 1 0 0 0 0-1.414l-2.121-2.121 1.414-1.415a1 1 0 0 0 0-1.414l-4.243-4.242a1.029 1.029 0 0 0 -1.414 0l-1.414 1.414-2.121-2.121a1 1 0 0 0 -1.414 0l-.019.019a12.95 12.95 0 0 0 -11.425-3.276l-4.309.862a1 1 0 0 0 -.12 1.929l3.677 1.226a11.051 11.051 0 0 1 4.3 2.657l2.24 2.24a1 1 0 0 0 0 1.414l2.121 2.121-18.85 18.85a4 4 0 1 0 5.656 5.656l18.85-18.849 2.121 2.121a1 1 0 0 0 1.414 0l2.24 2.24a11.055 11.055 0 0 1 2.658 4.3l1.225 3.675a1 1 0 0 0 .948.684h.063a1 1 0 0 0 .918-.8l.862-4.31a12.962 12.962 0 0 0 -3.275-11.427zm-22.859-12.47-.1-.034.617-.124a10.981 10.981 0 0 1 9.631 2.716l-2.822 2.822-2.24-2.239a13.063 13.063 0 0 0 -5.086-3.141zm17.22 3.966 2.829 2.828-.707.708-2.829-2.829zm-23.799 29.457a2.047 2.047 0 0 1 -2.828 0 2 2 0 0 1 0-2.828l18.849-18.851 2.829 2.829zm14.607-25.92 4.243-4.243 8.485 8.485-4.243 4.243zm16.145 16-.124.618-.034-.1a13.052 13.052 0 0 0 -3.141-5.082l-2.24-2.24 2.823-2.822a10.975 10.975 0 0 1 2.716 9.625z" fill="url(#New_Gradient_Swatch_3-2)"/><path d="m48 58h-13.75a1 1 0 0 1 0-2h12.75v-10a1 1 0 0 1 2 0v11a1 1 0 0 1 -1 1z" fill="url(#New_Gradient_Swatch_3-3)"/><path d="m44 19h-2v-9a1 1 0 0 0 -1-1h-4a1 1 0 0 0 -1 1v9h-2v-12a1 1 0 0 0 -1-1h-4a1 1 0 0 0 -1 1v12h-2v-9a1 1 0 0 0 -1-1h-4a1 1 0 0 0 -1 1v9h-2v-5a1 1 0 0 0 -1-1h-4a1 1 0 0 0 -1 1v5h-2a1 1 0 0 0 0 2h34a1 1 0 0 0 0-2zm-30 0v-4h2v4zm8 0v-8h2v8zm8 0v-11h2v11zm8 0v-8h2v8z" fill="url(#New_Gradient_Swatch_3)"/><path d="m14 30h-2a1 1 0 0 1 0-2h2a1 1 0 0 1 0 2z" fill="url(#New_Gradient_Swatch_3-5)"/><path d="m30 30h-12a1 1 0 0 1 0-2h12a1 1 0 0 1 0 2z" fill="url(#New_Gradient_Swatch_3-6)"/><path d="m35 36h-23a1 1 0 0 1 0-2h23a1 1 0 0 1 0 2z" fill="url(#New_Gradient_Swatch_3-7)"/><path d="m30 42h-18a1 1 0 0 1 0-2h18a1 1 0 0 1 0 2z" fill="url(#New_Gradient_Swatch_3-8)"/><path d="m24 48h-12a1 1 0 0 1 0-2h12a1 1 0 0 1 0 2z" fill="url(#New_Gradient_Swatch_3-9)"/></g></svg>