<svg height="512" viewBox="0 0 64 64" width="512" xmlns="http://www.w3.org/2000/svg"><g id="Design"><path d="m15 19h46v42h-46z" fill="#ffdaaa"/><path d="m23.973 61h37.027v-42h-.027c-.493 20.668-16.158 37.791-37 42z" fill="#ffc477"/><path d="m21 25h10v8h-10z" fill="none"/><path d="m21 38h10v8h-10z" fill="none"/><path d="m49 13.349v-8.349a2.015 2.015 0 0 0 -2-2 2.006 2.006 0 0 0 -2 2v8.349a5.905 5.905 0 0 1 4 0z" fill="#ff3051"/><path d="m35 3h-4-4-4-4-4-4-4-4v12h36v-12z" fill="#ffcd00"/><path d="m7 50 4 4v-25h-4z" fill="#ffcd00"/><path d="m7 29h-4v25l4-4z" fill="#d80027"/><path d="m3 29h4 4v-4h-8z" fill="#006df0"/><path d="m7 19a4 4 0 0 0 -4 4v2h8v-2a4 4 0 0 0 -4-4z" fill="#e6e7e8"/><path d="m53 19a5.917 5.917 0 0 1 -1.4 3.84 5.982 5.982 0 1 1 1.4-3.84z" fill="#ffcd00"/><circle cx="47" cy="19" fill="#006df0" r="2"/><path d="m21 25h10v8h-10z" fill="#006df0"/><path d="m21 38h10v8h-10z" fill="#006df0"/><path d="m7 50-4 4 1.53 2.677 2.47 4.323 2.47-4.323 1.53-2.677z" fill="#d1d3d4"/><path d="m9.47 56.677a4.844 4.844 0 0 0 -4.94 0l2.47 4.323z" fill="#58595b"/><path d="m31 52h-10a1 1 0 0 1 0-2h10a1 1 0 0 1 0 2z" fill="#ff9811"/><path d="m57.534 53.61a1 1 0 0 1 -.965-.741l-1.035-3.864a1 1 0 1 1 1.931-.518l1.035 3.864a1 1 0 0 1 -.966 1.259z" fill="#006df0"/><path d="m36.365 53.557a1.016 1.016 0 0 1 -.26-.035 1 1 0 0 1 -.705-1.222l1.036-3.863a1 1 0 0 1 1.931.517l-1.037 3.861a1 1 0 0 1 -.965.742z" fill="#006df0"/><path d="m51.952 35.294a1 1 0 0 0 -1.207-.736 15.778 15.778 0 0 1 -2.745.382v-.94a1 1 0 0 0 -2 0v.94a15.765 15.765 0 0 1 -2.745-.382 1 1 0 1 0 -.47 1.943 17.768 17.768 0 0 0 3.215.47v1.029a1 1 0 0 0 2 0v-1.029a17.768 17.768 0 0 0 3.215-.47 1 1 0 0 0 .737-1.207z" fill="#005ece"/><path d="m31 56h-10a1 1 0 0 1 0-2h10a1 1 0 0 1 0 2z" fill="#ff9811"/><g fill="#cca400"><path d="m14 3h2v5h-2z"/><path d="m18 3h2v5h-2z"/><path d="m6 3h2v5h-2z"/><path d="m10 3h2v5h-2z"/><path d="m22 3h2v5h-2z"/><path d="m34 3h2v5h-2z"/><path d="m26 3h2v5h-2z"/><path d="m30 3h2v5h-2z"/></g><path d="m37.035 50.138h.005a2 2 0 0 0 2.44-1.42l6.39-23.83a5.987 5.987 0 0 1 -3.637-2.276l-6.613 25.078a2.011 2.011 0 0 0 1.415 2.448z" fill="#ff3051"/><path d="m56.96 50.14h.005a2.011 2.011 0 0 0 1.415-2.45l-6.613-25.076a5.987 5.987 0 0 1 -3.637 2.276l6.39 23.83a2 2 0 0 0 2.44 1.42z" fill="#ff3051"/></g></svg>