<svg height="512" viewBox="0 0 64 64" width="512" xmlns="http://www.w3.org/2000/svg" xmlns:xlink="http://www.w3.org/1999/xlink"><linearGradient id="New_Gradient_Swatch_3" gradientUnits="userSpaceOnUse" x1="23" x2="23" y1="65.43" y2=".384"><stop offset="0" stop-color="#006df0"/><stop offset="1" stop-color="#00e7f0"/></linearGradient><linearGradient id="New_Gradient_Swatch_3-2" x1="24.5" x2="24.5" xlink:href="#New_Gradient_Swatch_3" y1="65.43" y2=".384"/><linearGradient id="New_Gradient_Swatch_3-3" x1="50" x2="50" xlink:href="#New_Gradient_Swatch_3" y1="65.43" y2=".384"/><linearGradient id="New_Gradient_Swatch_3-5" x1="40" x2="40" xlink:href="#New_Gradient_Swatch_3" y1="65.43" y2=".384"/><linearGradient id="New_Gradient_Swatch_3-6" x1="31" x2="31" xlink:href="#New_Gradient_Swatch_3" y1="65.43" y2=".384"/><linearGradient id="New_Gradient_Swatch_3-7" x1="47" x2="47" xlink:href="#New_Gradient_Swatch_3" y1="65.43" y2=".384"/><linearGradient id="New_Gradient_Swatch_3-8" x1="15" x2="15" xlink:href="#New_Gradient_Swatch_3" y1="65.43" y2=".384"/><linearGradient id="New_Gradient_Swatch_3-9" x1="39" x2="39" xlink:href="#New_Gradient_Swatch_3" y1="65.43" y2=".384"/><linearGradient id="New_Gradient_Swatch_3-10" x1="32" x2="32" xlink:href="#New_Gradient_Swatch_3" y1="65.43" y2=".384"/><linearGradient id="New_Gradient_Swatch_3-11" x1="12" x2="12" xlink:href="#New_Gradient_Swatch_3" y1="65.43" y2=".384"/><g id="Business_startegy" data-name="Business startegy"><path d="m11 58h-4a5.006 5.006 0 0 1 -5-5v-40a5.006 5.006 0 0 1 5-5h36a1 1 0 0 1 0 2h-36a3 3 0 0 0 -3 3v40a3 3 0 0 0 3 3h4a1 1 0 0 1 0 2z" fill="url(#New_Gradient_Swatch_3)"/><path d="m11 55h-4a2 2 0 0 1 -2-2v-40a2 2 0 0 1 2-2h36a1 1 0 0 1 0 2h-36v40h4a1 1 0 0 1 0 2z" fill="url(#New_Gradient_Swatch_3-2)"/><path d="m50 53a3 3 0 1 1 3-3 3 3 0 0 1 -3 3zm0-4a1 1 0 1 0 1 1 1 1 0 0 0 -1-1z" fill="url(#New_Gradient_Swatch_3-3)"/><path d="m53.533 42.223-.533.533v-.756a1 1 0 0 0 -1-1h-4a1 1 0 0 0 -1 1v.756l-.533-.533a1 1 0 0 0 -1.414 0l-2.83 2.83a1 1 0 0 0 0 1.414l.533.533h-.756a1 1 0 0 0 -1 1v4a1 1 0 0 0 1 1h.756l-.533.533a1 1 0 0 0 0 1.414l2.83 2.83a1 1 0 0 0 1.414 0l.533-.533v.756a1 1 0 0 0 1 1h4a1 1 0 0 0 1-1v-.756l.533.533a1 1 0 0 0 1.414 0l2.83-2.83a1 1 0 0 0 0-1.414l-.533-.533h.756a1 1 0 0 0 1-1v-4a1 1 0 0 0 -1-1h-.756l.533-.533a1 1 0 0 0 0-1.414l-2.83-2.83a1 1 0 0 0 -1.414 0zm.373 6.16a1 1 0 0 0 .924.617h2.17v2h-2.17a1 1 0 0 0 -.707 1.707l1.533 1.533-1.416 1.416-1.533-1.533a1 1 0 0 0 -1.707.707v2.17h-2v-2.17a1 1 0 0 0 -1.707-.707l-1.533 1.533-1.416-1.416 1.533-1.533a1 1 0 0 0 -.707-1.707h-2.17v-2h2.17a1 1 0 0 0 .707-1.707l-1.533-1.533 1.416-1.416 1.533 1.533a1 1 0 0 0 1.707-.707v-2.17h2v2.17a1 1 0 0 0 1.707.707l1.533-1.533 1.416 1.416-1.533 1.533a1 1 0 0 0 -.217 1.09z" fill="url(#New_Gradient_Swatch_3-3)"/><path d="m60 43.381v-30.381a5.006 5.006 0 0 0 -5-5h-4a1 1 0 0 0 0 2h4a3 3 0 0 1 3 3v28.081a12.342 12.342 0 0 0 -1-.808v-27.273a2 2 0 0 0 -2-2h-4a1 1 0 0 0 0 2h4v26.1a11.96 11.96 0 0 0 -16.6 13.9h-19.4a1 1 0 0 0 0 2h20.1c.158.342.33.676.519 1h-20.619a1 1 0 0 0 0 2h22.081a11.985 11.985 0 0 0 18.919-14.619zm-10 16.619a10 10 0 1 1 10-10 10.011 10.011 0 0 1 -10 10z" fill="url(#New_Gradient_Swatch_3-5)"/><path d="m15 62a1 1 0 0 1 -1-1v-1a1 1 0 0 1 2 0v1a1 1 0 0 1 -1 1zm0-5a1 1 0 0 1 -1-1v-1a1 1 0 0 1 2 0v1a1 1 0 0 1 -1 1zm0-5a1 1 0 0 1 -1-1v-1a1 1 0 0 1 2 0v1a1 1 0 0 1 -1 1zm.488-4.917a1 1 0 0 1 -.877-1.48 4.979 4.979 0 0 1 .731-1.011 1 1 0 1 1 1.458 1.365 2.991 2.991 0 0 0 -.438.6 1 1 0 0 1 -.874.526zm14.512-2.083h-.286a1 1 0 0 1 0-2h.286a3.019 3.019 0 0 0 .533-.047 1 1 0 1 1 .355 1.968 4.962 4.962 0 0 1 -.888.079zm-4.286 0h-1a1 1 0 0 1 0-2h1a1 1 0 0 1 0 2zm-5 0h-1a1 1 0 0 1 0-2h1a1 1 0 0 1 0 2zm12.986-2.468a1 1 0 0 1 -.924-1.384 2.933 2.933 0 0 0 .2-.72 1.013 1.013 0 0 1 1.132-.849 1 1 0 0 1 .849 1.131 4.972 4.972 0 0 1 -.33 1.2 1 1 0 0 1 -.927.622zm.3-4.961a1 1 0 0 1 -1-1v-.571a3.132 3.132 0 0 0 -.017-.323 1 1 0 1 1 1.989-.208 5.156 5.156 0 0 1 .028.531v.571a1 1 0 0 1 -1 1zm-2.21-4.149a.994.994 0 0 1 -.449-.107 3 3 0 0 0 -.7-.248 1 1 0 1 1 .424-1.954 4.956 4.956 0 0 1 1.178.415 1 1 0 0 1 -.45 1.894zm-4.933-.422h-1a1 1 0 0 1 0-2h1a1 1 0 0 1 0 2zm-5 0h-1a1 1 0 0 1 0-2h1a1 1 0 0 1 0 2zm-4.686-1.172a1 1 0 0 1 -.707-.293 5.051 5.051 0 0 1 -.765-.983 1 1 0 1 1 1.72-1.022 3.013 3.013 0 0 0 .459.591 1 1 0 0 1 -.707 1.707zm-1.171-4.685a1 1 0 0 1 -1-1v-1a1 1 0 0 1 2 0v1a1 1 0 0 1 -1 1zm.977-4.762a1 1 0 0 1 -.755-1.655 5.006 5.006 0 0 1 .925-.832 1 1 0 1 1 1.143 1.641 3.054 3.054 0 0 0 -.558.5 1 1 0 0 1 -.755.346zm25.594-1.381h-1a1 1 0 0 1 0-2h1a1 1 0 0 1 0 2zm-5 0h-1a1 1 0 0 1 0-2h1a1 1 0 0 1 0 2zm-5 0h-1a1 1 0 1 1 0-2h1a1 1 0 0 1 0 2zm-5 0h-1a1 1 0 1 1 0-2h1a1 1 0 0 1 0 2zm-5 0h-1a1 1 0 1 1 0-2h1a1 1 0 0 1 0 2zm23.543-1.49a1 1 0 0 1 -.778-1.628 2.96 2.96 0 0 0 .394-.636 1 1 0 1 1 1.819.833 5.045 5.045 0 0 1 -.656 1.059 1 1 0 0 1 -.779.372zm.886-4.8a1 1 0 0 1 -1-1v-1a1 1 0 0 1 2 0v1a1 1 0 0 1 -1 1.005zm0-5a1 1 0 0 1 -1-1v-1a1 1 0 0 1 2 0v1a1 1 0 0 1 -1 1.005z" fill="url(#New_Gradient_Swatch_3-6)"/><path d="m50 7a1 1 0 0 1 -.707-.293l-2.293-2.293-2.293 2.293a1 1 0 0 1 -1.414-1.414l3-3a1 1 0 0 1 1.414 0l3 3a1 1 0 0 1 -.707 1.707z" fill="url(#New_Gradient_Swatch_3-7)"/><path d="m18 42h-6a1 1 0 0 1 -.857-1.515l3-5a1.039 1.039 0 0 1 1.714 0l3 5a1 1 0 0 1 -.857 1.515zm-4.234-2h2.468l-1.234-2.056z" fill="url(#New_Gradient_Swatch_3-8)"/><path d="m41 35h-4a1 1 0 0 1 -1-1v-4a1 1 0 0 1 1-1h4a1 1 0 0 1 1 1v4a1 1 0 0 1 -1 1zm-3-2h2v-2h-2z" fill="url(#New_Gradient_Swatch_3-9)"/><path d="m33.414 49 .707-.707a1 1 0 0 0 -1.414-1.414l-.707.707-.707-.707a1 1 0 1 0 -1.414 1.414l.707.707-.707.707a1 1 0 1 0 1.414 1.414l.707-.707.707.707a1 1 0 0 0 1.414-1.414z" fill="url(#New_Gradient_Swatch_3-10)"/><path d="m12 21a3 3 0 1 1 3-3 3 3 0 0 1 -3 3zm0-4a1 1 0 1 0 1 1 1 1 0 0 0 -1-1z" fill="url(#New_Gradient_Swatch_3-11)"/></g></svg>