<svg height="512" viewBox="0 0 64 64" width="512" xmlns="http://www.w3.org/2000/svg" xmlns:xlink="http://www.w3.org/1999/xlink"><linearGradient id="New_Gradient_Swatch_3" gradientUnits="userSpaceOnUse" x1="32.066" x2="30.94" y1="61.452" y2="1.762"><stop offset="0" stop-color="#006df0"/><stop offset="1" stop-color="#00e7f0"/></linearGradient><linearGradient id="New_Gradient_Swatch_3-2" x1="38.233" x2="37.107" xlink:href="#New_Gradient_Swatch_3" y1="61.336" y2="1.645"/><linearGradient id="New_Gradient_Swatch_3-3" x1="10.243" x2="9.116" xlink:href="#New_Gradient_Swatch_3" y1="61.864" y2="2.173"/><linearGradient id="New_Gradient_Swatch_3-4" x1="14.241" x2="13.115" xlink:href="#New_Gradient_Swatch_3" y1="61.788" y2="2.098"/><linearGradient id="New_Gradient_Swatch_3-5" x1="18.24" x2="17.114" xlink:href="#New_Gradient_Swatch_3" y1="61.713" y2="2.022"/><linearGradient id="New_Gradient_Swatch_3-6" x1="22.238" x2="21.112" xlink:href="#New_Gradient_Swatch_3" y1="61.638" y2="1.947"/><linearGradient id="New_Gradient_Swatch_3-7" x1="42.231" x2="41.105" xlink:href="#New_Gradient_Swatch_3" y1="61.26" y2="1.57"/><linearGradient id="New_Gradient_Swatch_3-8" x1="46.23" x2="45.104" xlink:href="#New_Gradient_Swatch_3" y1="61.185" y2="1.494"/><linearGradient id="New_Gradient_Swatch_3-9" x1="50.228" x2="49.102" xlink:href="#New_Gradient_Swatch_3" y1="61.109" y2="1.419"/><linearGradient id="New_Gradient_Swatch_3-10" x1="26.237" x2="25.111" xlink:href="#New_Gradient_Swatch_3" y1="61.562" y2="1.871"/><linearGradient id="New_Gradient_Swatch_3-11" x1="30.236" x2="29.109" xlink:href="#New_Gradient_Swatch_3" y1="61.487" y2="1.796"/><linearGradient id="New_Gradient_Swatch_3-12" x1="34.234" x2="33.108" xlink:href="#New_Gradient_Swatch_3" y1="61.411" y2="1.721"/><linearGradient id="New_Gradient_Swatch_3-13" x1="54.227" x2="53.101" xlink:href="#New_Gradient_Swatch_3" y1="61.034" y2="1.343"/><linearGradient id="New_Gradient_Swatch_3-14" x1="44.155" x2="43.029" xlink:href="#New_Gradient_Swatch_3" y1="61.224" y2="1.533"/><linearGradient id="New_Gradient_Swatch_3-15" x1="50.153" x2="49.027" xlink:href="#New_Gradient_Swatch_3" y1="61.111" y2="1.42"/><linearGradient id="New_Gradient_Swatch_3-16" x1="54.152" x2="53.025" xlink:href="#New_Gradient_Swatch_3" y1="61.035" y2="1.345"/><linearGradient id="New_Gradient_Swatch_3-17" x1="10.167" x2="9.041" xlink:href="#New_Gradient_Swatch_3" y1="61.865" y2="2.175"/><linearGradient id="New_Gradient_Swatch_3-18" x1="14.166" x2="13.04" xlink:href="#New_Gradient_Swatch_3" y1="61.79" y2="2.099"/><linearGradient id="New_Gradient_Swatch_3-19" x1="20.164" x2="19.037" xlink:href="#New_Gradient_Swatch_3" y1="61.677" y2="1.986"/><linearGradient id="New_Gradient_Swatch_3-20" x1="32.925" x2="31.799" xlink:href="#New_Gradient_Swatch_3" y1="61.436" y2="1.745"/><linearGradient id="New_Gradient_Swatch_3-21" x1="33.108" x2="31.982" xlink:href="#New_Gradient_Swatch_3" y1="61.433" y2="1.742"/><g id="System_protect" data-name="System protect"><path d="m58 44.838v-27.838a3 3 0 0 0 -3-3h-7v-11a1 1 0 0 0 -1.5-.868l-1.425.814a10.981 10.981 0 0 1 -10.375.289l-2.261-1.13a1 1 0 0 0 -.894 0l-2.245 1.126a10.975 10.975 0 0 1 -10.379-.286l-1.421-.813a1 1 0 0 0 -1.5.868v11h-7a3 3 0 0 0 -3 3v27.838l-4 12v2.162a3 3 0 0 0 3 3h54a3 3 0 0 0 3-3v-2.162zm-18.219 11.162-.811-3.243a1 1 0 0 0 -.97-.757h-12a1 1 0 0 0 -.97.757l-.811 3.243h-19.832l3.334-10h48.558l3.334 10zm-2.062 0h-11.438l.5-2h10.438zm-19.719-51.277a12.972 12.972 0 0 0 12.192.3l1.8-.9 1.814.906a12.971 12.971 0 0 0 12.194-.306v10.877a22.959 22.959 0 0 1 -12.177 20.294l-1.823.973-1.823-.973a22.959 22.959 0 0 1 -12.177-20.294zm11.235 32.936 2.294 1.223a1 1 0 0 0 .942 0l2.294-1.223a24.938 24.938 0 0 0 12.835-17.659h4.4v20h-40v-20h4.4a24.938 24.938 0 0 0 12.835 17.659zm-21.235-20.659a1 1 0 0 1 1-1h7.012q.021 1.006.116 2h-5.128a1 1 0 0 0 -1 1v22a1 1 0 0 0 1 1h42a1 1 0 0 0 1-1v-22a1 1 0 0 0 -1-1h-5.128q.095-.993.116-2h7.012a1 1 0 0 1 1 1v27h-48zm51 43h-54a1 1 0 0 1 -1-1v-1h56v1a1 1 0 0 1 -1 1z" fill="url(#New_Gradient_Swatch_3)"/><path d="m37 48h2v2h-2z" fill="url(#New_Gradient_Swatch_3-2)"/><path d="m9 48h2v2h-2z" fill="url(#New_Gradient_Swatch_3-3)"/><path d="m13 48h2v2h-2z" fill="url(#New_Gradient_Swatch_3-4)"/><path d="m17 48h2v2h-2z" fill="url(#New_Gradient_Swatch_3-5)"/><path d="m21 48h2v2h-2z" fill="url(#New_Gradient_Swatch_3-6)"/><path d="m41 48h2v2h-2z" fill="url(#New_Gradient_Swatch_3-7)"/><path d="m45 48h2v2h-2z" fill="url(#New_Gradient_Swatch_3-8)"/><path d="m49 48h2v2h-2z" fill="url(#New_Gradient_Swatch_3-9)"/><path d="m25 48h2v2h-2z" fill="url(#New_Gradient_Swatch_3-10)"/><path d="m29 48h2v2h-2z" fill="url(#New_Gradient_Swatch_3-11)"/><path d="m33 48h2v2h-2z" fill="url(#New_Gradient_Swatch_3-12)"/><path d="m53 48h2v2h-2z" fill="url(#New_Gradient_Swatch_3-13)"/><path d="m41 52h6v2h-6z" fill="url(#New_Gradient_Swatch_3-14)"/><path d="m49 52h2v2h-2z" fill="url(#New_Gradient_Swatch_3-15)"/><path d="m53 52h2v2h-2z" fill="url(#New_Gradient_Swatch_3-16)"/><path d="m9 52h2v2h-2z" fill="url(#New_Gradient_Swatch_3-17)"/><path d="m13 52h2v2h-2z" fill="url(#New_Gradient_Swatch_3-18)"/><path d="m17 52h6v2h-6z" fill="url(#New_Gradient_Swatch_3-19)"/><path d="m31.118 34.129.411.22a1 1 0 0 0 .941 0l.412-.22a20.96 20.96 0 0 0 11.118-18.529v-6.566a1 1 0 0 0 -1.211-.978 15.117 15.117 0 0 1 -9.873-1.243l-.472-.235a1 1 0 0 0 -.9 0l-.462.231a15.117 15.117 0 0 1 -9.876 1.246 1 1 0 0 0 -1.206.978v6.567a20.96 20.96 0 0 0 11.118 18.529zm-9.118-23.902a17.141 17.141 0 0 0 9.982-1.627l.018-.01.024.013a17.1 17.1 0 0 0 9.976 1.625v5.372a18.965 18.965 0 0 1 -10 16.733 18.965 18.965 0 0 1 -10-16.733z" fill="url(#New_Gradient_Swatch_3-20)"/><path d="m30 24a1 1 0 0 0 .707-.293l8.364-8.364a1 1 0 1 0 -1.414-1.414l-7.657 7.657-3.122-3.122a1 1 0 0 0 -1.414 1.414l3.829 3.829a1 1 0 0 0 .707.293z" fill="url(#New_Gradient_Swatch_3-21)"/></g></svg>