<svg height="480pt" viewBox="0 0 480 480.00002" width="480pt" xmlns="http://www.w3.org/2000/svg" xmlns:xlink="http://www.w3.org/1999/xlink"><linearGradient id="a"><stop offset="0" stop-color="#006df0"/><stop offset="1" stop-color="#00e7f0"/></linearGradient><linearGradient id="b" gradientUnits="userSpaceOnUse" x1="367.999372" x2="367.999372" xlink:href="#a" y1="-1.392" y2="493.456"/><linearGradient id="c" gradientUnits="userSpaceOnUse" x1="371.999372" x2="371.999372" xlink:href="#a" y1="-1.392" y2="493.456"/><linearGradient id="d" gradientUnits="userSpaceOnUse" x1="143.999372" x2="143.999372" xlink:href="#a" y1="-1.392" y2="493.456"/><linearGradient id="e" gradientUnits="userSpaceOnUse" x1="139.999372" x2="139.999372" xlink:href="#a" y1="-1.392" y2="493.456"/><linearGradient id="f" gradientUnits="userSpaceOnUse" x1="63.999372" x2="63.999372" xlink:href="#a" y1="-1.392" y2="493.456"/><linearGradient id="g" gradientUnits="userSpaceOnUse" x1="351.999372" x2="351.999372" xlink:href="#a" y1="-1.392" y2="493.456"/><linearGradient id="h" gradientUnits="userSpaceOnUse" x1="199.999372" x2="199.999372" xlink:href="#a" y1="-1.392" y2="493.456"/><linearGradient id="i" gradientUnits="userSpaceOnUse" x1="447.999372" x2="447.999372" xlink:href="#a" y1="-1.392" y2="493.456"/><path d="m408 40c0-22.089844-17.910156-40-40-40-22.09375 0-40 17.910156-40 40s17.90625 40 40 40c22.078125-.027344 39.972656-17.917969 40-40zm-40 24c-13.253906 0-24-10.746094-24-24s10.746094-24 24-24 24 10.746094 24 24-10.746094 24-24 24zm0 0" fill="url(#b)"/><path d="m456 80h-144v-48c0-13.253906-10.746094-24-24-24s-24 10.746094-24 24v72c0 13.253906 10.746094 24 24 24h24v37.34375l-27.199219 36.398438c-3.109375 4.160156-4.792969 9.210937-4.800781 14.402343v87.855469c0 4.417969 3.582031 8 8 8h32c4.417969 0 8-3.582031 8-8v-79.679688c-.003906-2.007812.75-3.945312 2.113281-5.425781l17.390625-18.894531h20.496094v104c0 4.417969 3.582031 8 8 8h32c4.417969 0 8-3.582031 8-8v-176h16v32c0 13.253906 10.746094 24 24 24s24-10.746094 24-24v-56c0-13.253906-10.746094-24-24-24zm8 80c0 4.417969-3.582031 8-8 8s-8-3.582031-8-8v-40c0-4.417969-3.582031-8-8-8h-32c-4.417969 0-8 3.582031-8 8v176h-16v-104c0-4.417969-3.582031-8-8-8h-32c-2.234375.003906-4.367188.9375-5.878906 2.585938l-19.777344 21.476562c-4.089844 4.425781-6.355469 10.234375-6.34375 16.257812v71.679688h-16v-79.878906c0-1.730469.5625-3.417969 1.597656-4.800782l28.800782-38.519531c1.039062-1.386719 1.601562-3.070312 1.601562-4.800781v-48c0-4.417969-3.582031-8-8-8h-32c-4.417969 0-8-3.582031-8-8v-72c0-4.417969 3.582031-8 8-8s8 3.582031 8 8v56c0 4.417969 3.582031 8 8 8h152c4.417969 0 8 3.582031 8 8zm0 0" fill="url(#c)"/><path d="m184 192c0-22.089844-17.910156-40-40-40-22.09375 0-40 17.910156-40 40s17.90625 40 40 40c22.078125-.027344 39.972656-17.917969 40-40zm-40 24c-13.253906 0-24-10.746094-24-24s10.746094-24 24-24 24 10.746094 24 24-10.746094 24-24 24zm0 0" fill="url(#d)"/><path d="m229.910156 160.800781c-7.164062-1.800781-14.761718-.207031-20.597656 4.324219-5.839844 4.527344-9.273438 11.488281-9.3125 18.875v48h-128c-22.082031.027344-39.972656 17.917969-40 40v40c0 13.253906 10.746094 24 24 24h40v23.761719c0 .738281.101562 1.472656.304688 2.183593l15.078124 53.007813-30.328124 53.046875c-1.429688 2.476562-1.429688 5.53125.003906 8.007812 1.433594 2.476563 4.078125 3.996094 6.941406 3.992188h32c2.863281.003906 5.511719-1.519531 6.945312-4l32-56c1.066407-1.867188 1.339844-4.089844.75-6.160156l-13.089843-45.839844h15.625l13.601562 40.800781-7.769531 62.199219c-.285156 2.277344.417969 4.570312 1.9375 6.292969 1.519531 1.71875 3.703125 2.707031 6 2.707031h32c4.035156 0 7.433594-3.003906 7.933594-7.007812l8-64c.132812-1.035157.0625-2.089844-.214844-3.097657l-23.71875-86.964843v-38.929688h24c13.253906 0 24-10.746094 24-24v-71.121094c.1875-11.21875-7.261719-21.132812-18.089844-24.078125zm2.089844 95.199219c0 4.417969-3.582031 8-8 8h-32c-4.417969 0-8 3.582031-8 8v48c0 .710938.09375 1.417969.28125 2.105469l23.582031 86.46875-6.929687 55.425781h-15.871094l6.871094-55.007812c.152344-1.183594.035156-2.390626-.351563-3.519532l-16-48c-1.085937-3.265625-4.140625-5.46875-7.582031-5.472656h-32c-2.511719 0-4.875 1.175781-6.386719 3.179688-1.511719 2.003906-1.996093 4.597656-1.308593 7.011718l15.078124 52.800782-28.023437 49.007812h-13.601563l25.152344-44c1.066406-1.867188 1.339844-4.082031.753906-6.152344l-15.664062-55.207031v-22.640625c13.226562-.066406 23.933594-10.773438 24-24 0-13.253906-10.746094-24-24-24v-16c0-4.417969-3.582031-8-8-8h-24c-8.835938 0-16 7.164062-16 16v16c0 4.417969 3.582031 8 8 8h40c4.417969 0 8 3.582031 8 8 .003906 2.160156-.886719 4.222656-2.457031 5.703125-1.460938 1.488281-3.460938 2.316406-5.542969 2.296875h-56c-4.417969 0-8-3.582031-8-8v-40c0-13.253906 10.746094-24 24-24h136c4.417969 0 8-3.582031 8-8v-56c-.003906-2.15625.878906-4.214844 2.449219-5.695312 1.945312-2.019532 4.84375-2.800782 7.542969-2.03125 3.707031 1.191406 6.164062 4.714843 6.007812 8.605468zm-136 32h-16v-8h16zm0 0" fill="url(#e)"/><path d="m56.566406 122.96875c1.214844 3.042969 4.15625 5.039062 7.433594 5.039062 3.273438 0 6.21875-1.996093 7.429688-5.039062l14.730468-36.800781 36.800782-14.726563c3.042968-1.214844 5.039062-4.15625 5.039062-7.433594 0-3.273437-1.996094-6.21875-5.039062-7.433593l-36.800782-14.734375-14.730468-36.800782c-1.210938-3.042968-4.15625-5.039062-7.429688-5.039062-3.277344 0-6.21875 1.996094-7.433594 5.039062l-14.726562 36.800782-36.800782 14.726562c-3.042968 1.214844-5.039062 4.160156-5.039062 7.433594s1.996094 6.21875 5.039062 7.433594l36.800782 14.726562zm-5.597656-67.535156c2.035156-.816406 3.648438-2.429688 4.460938-4.464844l8.570312-21.433594 8.566406 21.433594c.8125 2.035156 2.429688 3.648438 4.464844 4.464844l21.433594 8.566406-21.433594 8.566406c-2.035156.816406-3.652344 2.429688-4.464844 4.464844l-8.566406 21.433594-8.570312-21.433594c-.8125-2.035156-2.425782-3.648438-4.460938-4.464844l-21.433594-8.566406zm0 0" fill="url(#f)"/><path d="m410.96875 408.566406-36.800781-14.726562-14.730469-36.800782c-1.210938-3.042968-4.15625-5.039062-7.429688-5.039062-3.277343 0-6.21875 1.996094-7.433593 5.039062l-14.726563 36.800782-36.800781 14.726562c-3.042969 1.214844-5.039063 4.160156-5.039063 7.433594s1.996094 6.21875 5.039063 7.433594l36.800781 14.726562 14.726563 36.800782c1.214843 3.042968 4.15625 5.039062 7.433593 5.039062 3.273438 0 6.21875-1.996094 7.429688-5.039062l14.730469-36.800782 36.800781-14.726562c3.042969-1.214844 5.039062-4.160156 5.039062-7.433594s-1.996093-6.21875-5.039062-7.433594zm-45.9375 16c-2.035156.816406-3.652344 2.429688-4.464844 4.464844l-8.566406 21.433594-8.570312-21.433594c-.8125-2.035156-2.425782-3.648438-4.460938-4.464844l-21.433594-8.566406 21.433594-8.566406c2.035156-.816406 3.648438-2.429688 4.460938-4.464844l8.570312-21.433594 8.566406 21.433594c.8125 2.035156 2.429688 3.648438 4.464844 4.464844l21.433594 8.566406zm0 0" fill="url(#g)"/><path d="m200 118.625c-2.121094 0-4.15625-.84375-5.65625-2.34375l-22.625-22.625c-3.121094-3.125-3.121094-8.1875 0-11.3125l22.625-22.625c3.125-3.121094 8.1875-3.121094 11.3125 0l22.625 22.625c3.121094 3.125 3.121094 8.1875 0 11.3125l-22.625 22.625c-1.5 1.5-3.535156 2.34375-5.65625 2.34375zm-11.3125-30.625 11.3125 11.3125 11.3125-11.3125-11.3125-11.3125zm0 0" fill="url(#h)"/><path d="m448 390.625c-2.121094 0-4.15625-.84375-5.65625-2.34375l-22.625-22.625c-3.121094-3.125-3.121094-8.1875 0-11.3125l22.625-22.625c3.125-3.121094 8.1875-3.121094 11.3125 0l22.625 22.625c3.121094 3.125 3.121094 8.1875 0 11.3125l-22.625 22.625c-1.5 1.5-3.535156 2.34375-5.65625 2.34375zm-11.3125-30.625 11.3125 11.3125 11.3125-11.3125-11.3125-11.3125zm0 0" fill="url(#i)"/></svg>