<svg height="512" viewBox="0 0 64 64" width="512" xmlns="http://www.w3.org/2000/svg"><path d="m38 53h-35v4a4 4 0 0 0 4 4h50a4 4 0 0 0 4-4v-4z" fill="#58595b"/><path d="m59 15v38h-54v-38a4 4 0 0 1 4-4h46a4 4 0 0 1 4 4z" fill="#3d9ae2"/><path d="m5 57v-4h-2v4a4 4 0 0 0 4 4h2a4 4 0 0 1 -4-4z" fill="#414042"/><path d="m11 11h-2a4 4 0 0 0 -4 4v38h2v-38a4 4 0 0 1 4-4z" fill="#1a6fb0"/><path d="m31 21h24v28h-24z" fill="#ffdaaa"/><path d="m9 15v6h22 24v-6z" fill="#004fac"/><path d="m9 21h22v28h-22z" fill="#ffeb99"/><path d="m35 25h16v10h-16z" fill="#9bc9ff"/><path d="m43.986 33.58 1.014 1.42h6l-4-5z" fill="#5eac24"/><path d="m40 28-5 7h10z" fill="#4e901e"/><path d="m26 55a2 2 0 0 0 2 2h8a2 2 0 0 0 2-2v-2h-12z" fill="#d1d3d4"/><path d="m12 17h2v2h-2z" fill="#f1f2f2"/><path d="m16 17h2v2h-2z" fill="#f1f2f2"/><path d="m20 17h2v2h-2z" fill="#f1f2f2"/><path d="m34 38h2v2h-2z" fill="#ff9811"/><path d="m38 38h8v2h-8z" fill="#ff9811"/><path d="m48 38h4v2h-4z" fill="#ff9811"/><path d="m34 42h10v2h-10z" fill="#ff9811"/><path d="m46 42h6v2h-6z" fill="#ff9811"/><g fill="#ffcd00"><path d="m12 24h2v2h-2z"/><path d="m16 24h4v2h-4z"/><path d="m22 24h2v2h-2z"/><path d="m14 27h2v2h-2z"/><path d="m18 27h4v2h-4z"/><path d="m24 27h3v2h-3z"/><path d="m14 30h5v2h-5z"/><path d="m21 30h7v2h-7z"/><path d="m12 38h2v2h-2z"/><path d="m16 38h6v2h-6z"/><path d="m16 41h2v2h-2z"/><path d="m20 41h4v2h-4z"/><path d="m26 41h2v2h-2z"/><path d="m16 44h4v2h-4z"/><path d="m22 44h6v2h-6z"/><path d="m13 34h2v2h-2z"/><path d="m17 34h8v2h-8z"/></g></svg>