<?xml version="1.0" encoding="utf-8"?>
<svg xmlns="http://www.w3.org/2000/svg" xmlns:xlink="http://www.w3.org/1999/xlink" viewBox="0 0 113.39 113.39" enable-background="new 0 0 113.39 113.39" xml:space="preserve">
<g>
	<g>
		<g>
			<path fill-rule="evenodd" clip-rule="evenodd" fill="#FFFFFF" d="M55.215,97.857c-11.5,0-22.718-4.91-30.776-13.473
				c-8.1-8.605-12.167-19.822-11.453-31.585c0.893-14.733,9.599-28.077,22.72-34.824C40.132,15.7,45.42,14.227,51,13.715
				c0.77-0.072,3.273-0.259,5.531-0.259c0.656,0,1.288,0.016,1.851,0.054c11.973,0.803,23.056,6.996,30.407,16.99
				c0.197,0.268,0.419,0.56,0.655,0.872c2.13,2.808,5.348,7.05,4.597,11.158c-0.62,3.386-5.078,5.692-10.402,8.147
				c-0.788,0.363-1.463,0.671-1.916,0.913c-4.938,2.634-9.597,5.044-14.103,7.374c-4.934,2.552-10.035,5.189-15.483,8.114
				c-0.305,0.163-0.61,0.337-0.919,0.512c-1.729,0.98-3.88,2.201-6.591,2.201c-0.156,0-0.313-0.004-0.472-0.012
				c-2.648-0.137-5.025-1.347-6.692-3.407c-1.717-2.122-2.448-4.921-2.006-7.681c0.719-4.501,4.528-6.455,7.589-8.024
				c0.328-0.168,0.654-0.335,0.977-0.506c3.7-1.954,7.023-3.676,10.372-5.41c3.794-1.966,7.62-3.948,12.063-6.304l0.412-0.215
				c0.307-0.159,0.921-0.477,1.431-0.787c-0.544-0.438-1.592-1.101-3.608-2.031c-3.013-1.391-6.079-2.076-9.2-2.076
				c-8.923,0-16.304,5.544-19.387,10.696c-3.299,5.514-3.952,13.599-1.586,19.66c2.667,6.83,9.407,14.129,20.328,14.129
				c1.336,0,2.722-0.112,4.118-0.335c10.651-1.696,15.107-9.87,16.22-12.335c0.534-1.185,0.935-2.487,1.321-3.747
				c1.204-3.917,2.701-8.793,8.974-9.552c0.412-0.05,0.831-0.076,1.243-0.076c4.865,0,9.125,3.563,9.908,8.29
				c0.572,3.459-0.95,7.815-2.146,10.791c-4,9.968-11.936,18.527-21.228,22.896C67.465,96.477,61.396,97.857,55.215,97.857z"/>
			<path fill="#4D4C4D" d="M56.53,16.175c0.592,0,1.163,0.014,1.67,0.048c12.286,0.824,22.253,7.535,28.397,15.888
				c1.754,2.384,5.374,6.613,4.768,9.929c-0.523,2.856-8.542,5.879-10.924,7.15c-10.339,5.515-19.156,9.89-29.592,15.491
				c-1.896,1.019-3.821,2.391-6.224,2.391c-0.109,0-0.219-0.003-0.33-0.009c-4.022-0.208-6.8-3.914-6.155-7.942
				c0.563-3.519,4.063-4.925,7.15-6.555c7.895-4.169,14.073-7.28,22.439-11.717c1.179-0.625,3.669-1.789,3.774-2.979
				c0.198-2.256-4.14-4.217-5.759-4.964c-3.456-1.595-6.924-2.288-10.255-2.288c-9.508,0-17.903,5.639-21.72,12.019
				c-3.491,5.835-4.59,14.86-1.786,22.044c3.154,8.079,11.05,15.86,22.861,15.86c1.457,0,2.971-0.118,4.545-0.369
				c9.701-1.545,15.661-8.118,18.271-13.902c2.313-5.125,2.024-10.978,8.143-11.717c0.311-0.038,0.617-0.056,0.917-0.056
				c3.801,0,6.712,2.918,7.226,6.015c0.465,2.811-0.97,6.802-1.986,9.333c-3.762,9.374-11.203,17.378-19.861,21.448
				c-5.613,2.64-11.338,3.846-16.884,3.846c-21.856,0-40.938-18.723-39.515-42.174c0.905-14.94,9.897-26.733,21.249-32.57
				c3.935-2.022,8.917-3.477,14.299-3.971C51.947,16.358,54.379,16.175,56.53,16.175 M56.53,10.737
				c-2.361,0-4.978,0.195-5.787,0.271c-5.916,0.543-11.548,2.117-16.281,4.55c-13.972,7.184-23.241,21.392-24.191,37.078
				c-0.76,12.518,3.568,24.457,12.187,33.614c8.57,9.105,20.509,14.328,32.756,14.328c6.584,0,13.043-1.468,19.198-4.362
				c9.897-4.653,18.345-13.754,22.595-24.345c1.428-3.555,2.98-8.16,2.305-12.246c-0.749-4.519-3.983-8.204-8.161-9.763
				c2.974-1.854,5.032-3.943,5.563-6.84c0.967-5.288-2.687-10.105-5.104-13.292c-0.229-0.301-0.442-0.583-0.632-0.841
				c-7.827-10.641-19.642-17.235-32.414-18.092C57.968,10.757,57.285,10.737,56.53,10.737L56.53,10.737z M36.148,51.936
				c0.397-2.372,1.168-4.632,2.289-6.506c2.701-4.514,9.19-9.373,17.053-9.373c2.397,0,4.762,0.466,7.045,1.385
				c-3.358,1.767-6.417,3.352-9.395,4.895c-3.283,1.701-6.678,3.46-10.39,5.42c-0.313,0.165-0.63,0.328-0.948,0.49
				C40.104,49.119,37.946,50.226,36.148,51.936L36.148,51.936z M45.184,72.498c3.154-0.148,5.578-1.523,7.375-2.543
				c0.29-0.164,0.577-0.328,0.864-0.481c5.429-2.914,10.522-5.548,15.446-8.095c1.888-0.976,3.803-1.966,5.754-2.981
				c-0.28,0.787-0.511,1.537-0.718,2.21c-0.379,1.232-0.736,2.397-1.2,3.426c-0.971,2.152-4.861,9.286-14.169,10.769
				c-1.254,0.2-2.496,0.301-3.69,0.301C51.051,75.103,47.832,74.092,45.184,72.498L45.184,72.498z"/>
		</g>
		<g>
			<path fill-rule="evenodd" clip-rule="evenodd" fill="#6ECEEC" d="M89.998,96.743c-1.384,0-2.777-0.261-4.142-0.775
				c-4.304-1.621-6.871-6.09-6.389-11.12c0.473-4.934,3.813-8.64,8.51-9.441c0.777-0.133,1.549-0.2,2.293-0.2
				c5.14,0,9.184,3.195,10.305,8.14c0.747,3.298-0.024,6.691-2.116,9.311C96.385,95.253,93.301,96.743,89.998,96.743z"/>
			<path fill="#4D4C4D" d="M90.271,77.02c4.665-0.001,7.7,3.038,8.536,6.727c1.317,5.814-3.072,11.184-8.809,11.184
				c-1.127,0-2.305-0.207-3.502-0.658c-7.5-2.825-7.076-15.565,1.786-17.078C88.974,77.075,89.638,77.02,90.271,77.02
				 M90.271,73.394L90.271,73.394c-0.847,0-1.722,0.076-2.599,0.226c-5.527,0.943-9.457,5.283-10.01,11.056
				c-0.562,5.855,2.475,11.076,7.555,12.989c1.568,0.592,3.177,0.892,4.78,0.892c3.856,0,7.457-1.738,9.877-4.769
				c2.438-3.052,3.338-7.004,2.468-10.842C101.049,77.231,96.197,73.394,90.271,73.394L90.271,73.394z"/>
		</g>
	</g>
</g>
</svg>
