<svg height="480pt" viewBox="0 0 480.00239 480" width="480pt" xmlns="http://www.w3.org/2000/svg" xmlns:xlink="http://www.w3.org/1999/xlink"><linearGradient id="a"><stop offset="0" stop-color="#006df0"/><stop offset="1" stop-color="#00e7f0"/></linearGradient><linearGradient id="b" gradientUnits="userSpaceOnUse" x1="240.001197" x2="240.001197" xlink:href="#a" y1="8.377195" y2="502.337195"/><linearGradient id="c" gradientUnits="userSpaceOnUse" x1="188.001197" x2="188.001197" xlink:href="#a" y1="8.377195" y2="502.337195"/><linearGradient id="d" gradientUnits="userSpaceOnUse" x1="260.001197" x2="260.001197" xlink:href="#a" y1="8.377195" y2="502.337195"/><linearGradient id="e" gradientUnits="userSpaceOnUse" x1="376.001197" x2="376.001197" xlink:href="#a" y1="8.377195" y2="502.337195"/><path d="m478.65625 235.5625-32-48c-1.484375-2.226562-3.980469-3.5625-6.65625-3.5625h-176v-32h48c4.417969 0 8-3.582031 8-8v-96c0-4.417969-3.582031-8-8-8h-48v-16c0-13.253906-10.742188-24-24-24-13.253906 0-24 10.746094-24 24v16h-176c-2.671875 0-5.171875 1.335938-6.65625 3.5625l-32 48c-1.792969 2.6875-1.792969 6.191406 0 8.878906l32 48c1.484375 2.222656 3.984375 3.558594 6.65625 3.558594h176v32h-80c-4.417969 0-8 3.582031-8 8v96c0 4.417969 3.582031 8 8 8h80v32h-176c-2.671875 0-5.171875 1.335938-6.65625 3.5625l-32 48c-1.792969 2.6875-1.792969 6.191406 0 8.878906l32 48c1.484375 2.222656 3.984375 3.558594 6.65625 3.558594h176v32c0 4.417969 3.582031 8 8 8h32c4.417969 0 8-3.582031 8-8v-32h48c4.417969 0 8-3.582031 8-8v-96c0-4.417969-3.582031-8-8-8h-48v-32h176c2.675781 0 5.171875-1.335938 6.65625-3.558594l32-48c1.792969-2.6875 1.792969-6.191406 0-8.878906zm-174.65625-99.5625h-211.71875l-26.679688-40 26.664063-40h211.734375zm-72-112c0-4.417969 3.582031-8 8-8s8 3.582031 8 8v16h-16zm-214.398438 72 26.679688-40h28.800781l-23.738281 35.5625c-.578125.878906-.980469 1.863281-1.183594 2.894531-.046875.511719-.046875 1.023438 0 1.535157-.046875.511718-.046875 1.027343 0 1.535156.203125 1.03125.605469 2.015625 1.183594 2.890625l23.714844 35.582031h-28.800782zm214.398438 56h16v32h-16zm-88 48h243.722656l26.679688 40-26.664063 40h-243.738281zm-126.398438 184 26.664063-40h28.800781l-23.722656 35.5625c-.578125.878906-.980469 1.863281-1.183594 2.894531-.007812 1.023438-.007812 2.046875 0 3.070313.203125 1.03125.605469 2.015625 1.183594 2.890625l23.714844 35.582031h-28.800782zm230.398438 80h-16v-24h16zm56-40h-211.71875l-26.679688-40 26.664063-40h211.734375zm-56-96h-16v-32h16zm187.722656-48h-28.800781l23.710937-35.558594c.582032-.875.984376-1.855468 1.183594-2.886718.011719-1.027344.011719-2.050782 0-3.074219-.203125-1.03125-.605468-2.015625-1.183594-2.894531l-23.6875-35.585938h28.800782l26.65625 40zm0 0" fill="url(#b)"/><path d="m104 96c0 4.417969 3.582031 8 8 8h152c4.417969 0 8-3.582031 8-8s-3.582031-8-8-8h-152c-4.417969 0-8 3.582031-8 8zm0 0" fill="url(#c)"/><path d="m104 384c0 4.417969 3.582031 8 8 8h152c4.417969 0 8-3.582031 8-8s-3.582031-8-8-8h-152c-4.417969 0-8 3.582031-8 8zm0 0" fill="url(#c)"/><path d="m344 240c0-4.417969-3.582031-8-8-8h-152c-4.417969 0-8 3.582031-8 8s3.582031 8 8 8h152c4.417969 0 8-3.582031 8-8zm0 0" fill="url(#d)"/><path d="m368 248h16c4.417969 0 8-3.582031 8-8s-3.582031-8-8-8h-16c-4.417969 0-8 3.582031-8 8s3.582031 8 8 8zm0 0" fill="url(#e)"/></svg>