<svg height="512" viewBox="0 0 64 64" width="512" xmlns="http://www.w3.org/2000/svg" xmlns:xlink="http://www.w3.org/1999/xlink"><linearGradient id="New_Gradient_Swatch_3" gradientUnits="userSpaceOnUse" x1="16" x2="16" y1="65.075" y2=".829"><stop offset="0" stop-color="#006df0"/><stop offset="1" stop-color="#00e7f0"/></linearGradient><linearGradient id="New_Gradient_Swatch_3-2" x1="7" x2="7" xlink:href="#New_Gradient_Swatch_3" y1="65.075" y2=".829"/><linearGradient id="New_Gradient_Swatch_3-3" x1="29.5" x2="29.5" xlink:href="#New_Gradient_Swatch_3" y1="65.075" y2=".829"/><linearGradient id="New_Gradient_Swatch_3-5" x1="11" x2="11" xlink:href="#New_Gradient_Swatch_3" y1="65.075" y2=".829"/><linearGradient id="New_Gradient_Swatch_3-6" x1="15" x2="15" xlink:href="#New_Gradient_Swatch_3" y1="65.075" y2=".829"/><linearGradient id="New_Gradient_Swatch_3-7" x1="47" x2="47" xlink:href="#New_Gradient_Swatch_3" y1="65.075" y2=".829"/><linearGradient id="New_Gradient_Swatch_3-8" x1="9" x2="9" xlink:href="#New_Gradient_Swatch_3" y1="65.075" y2=".829"/><linearGradient id="New_Gradient_Swatch_3-9" x1="14.5" x2="14.5" xlink:href="#New_Gradient_Swatch_3" y1="65.075" y2=".829"/><linearGradient id="New_Gradient_Swatch_3-10" x1="25.5" x2="25.5" xlink:href="#New_Gradient_Swatch_3" y1="65.075" y2=".829"/><linearGradient id="New_Gradient_Swatch_3-11" x1="20" x2="20" xlink:href="#New_Gradient_Swatch_3" y1="65.075" y2=".829"/><linearGradient id="New_Gradient_Swatch_3-13" x1="21" x2="21" xlink:href="#New_Gradient_Swatch_3" y1="65.075" y2=".829"/><linearGradient id="New_Gradient_Swatch_3-15" x1="36.5" x2="36.5" xlink:href="#New_Gradient_Swatch_3" y1="65.075" y2=".829"/><linearGradient id="New_Gradient_Swatch_3-17" x1="25" x2="25" xlink:href="#New_Gradient_Swatch_3" y1="65.075" y2=".829"/><linearGradient id="New_Gradient_Swatch_3-18" x1="35" x2="35" xlink:href="#New_Gradient_Swatch_3" y1="65.075" y2=".829"/><linearGradient id="New_Gradient_Swatch_3-19" x1="30" x2="30" xlink:href="#New_Gradient_Swatch_3" y1="65.075" y2=".829"/><linearGradient id="New_Gradient_Swatch_3-22" x1="27.5" x2="27.5" xlink:href="#New_Gradient_Swatch_3" y1="65.075" y2=".829"/><linearGradient id="New_Gradient_Swatch_3-23" x1="20.5" x2="20.5" xlink:href="#New_Gradient_Swatch_3" y1="65.075" y2=".829"/><linearGradient id="New_Gradient_Swatch_3-24" x1="29" x2="29" xlink:href="#New_Gradient_Swatch_3" y1="65.075" y2=".829"/><linearGradient id="New_Gradient_Swatch_3-25" x1="45.5" x2="45.5" xlink:href="#New_Gradient_Swatch_3" y1="65.075" y2=".829"/><linearGradient id="New_Gradient_Swatch_3-26" x1="46.5" x2="46.5" xlink:href="#New_Gradient_Swatch_3" y1="65.075" y2=".829"/><path d="m29 52h-9.928l7.015-7.023a1 1 0 0 0 0-1.414l-5.65-5.65a1 1 0 0 0 -1.414 0l-7.023 7.018v-9.931a1 1 0 0 0 -1-1h-8a1 1 0 0 0 -1 1v22a5.006 5.006 0 0 0 5 5h22a1 1 0 0 0 1-1v-8a1 1 0 0 0 -1-1zm-20.071-4-4.929 4.926v-4.926zm-4.929-2v-4h6v4zm7.243 2.515 3.485 3.485h-6.972zm1.415-1.415 2.829-2.828 4.241 4.24-2.828 2.832zm3.342 6.9v6h-4v-6zm2 0h4v6h-4zm1.73-13.966 4.236 4.237-2.825 2.829-4.241-4.24zm-9.73-4.034v4h-6v-4zm-6 21a3 3 0 0 1 3-3h3v6h-3a3 3 0 0 1 -3-3zm24 3h-4v-6h4z" fill="url(#New_Gradient_Swatch_3)"/><path d="m6 56h2v2h-2z" fill="url(#New_Gradient_Swatch_3-2)"/><path d="m54 2h-49a3 3 0 0 0 -3 3v26a1 1 0 0 0 2 0v-21h51v20a1 1 0 0 0 2 0v-25a3 3 0 0 0 -3-3zm-50 6v-3a1 1 0 0 1 1-1h49a1 1 0 0 1 1 1v3z" fill="url(#New_Gradient_Swatch_3-3)"/><path d="m6 5h2v2h-2z" fill="url(#New_Gradient_Swatch_3-2)"/><path d="m10 5h2v2h-2z" fill="url(#New_Gradient_Swatch_3-5)"/><path d="m14 5h2v2h-2z" fill="url(#New_Gradient_Swatch_3-6)"/><path d="m59 33h-24a3 3 0 0 0 -3 3v23a3 3 0 0 0 3 3h24a3 3 0 0 0 3-3v-23a3 3 0 0 0 -3-3zm-24 2h24a1 1 0 0 1 1 1v3h-26v-3a1 1 0 0 1 1-1zm-1 24v-18h4v19h-3a1 1 0 0 1 -1-1zm25 1h-19v-19h20v18a1 1 0 0 1 -1 1z" fill="url(#New_Gradient_Swatch_3-7)"/><path d="m9 32a1 1 0 0 1 -1-1v-16a1 1 0 0 1 2 0v16a1 1 0 0 1 -1 1z" fill="url(#New_Gradient_Swatch_3-8)"/><path d="m16 19a1 1 0 0 1 -.554-.168l-3-2a1 1 0 0 1 0-1.664l3-2a1 1 0 1 1 1.11 1.664l-1.756 1.168 1.752 1.168a1 1 0 0 1 -.552 1.832z" fill="url(#New_Gradient_Swatch_3-9)"/><path d="m24 19a1 1 0 0 1 -.556-1.832l1.756-1.168-1.752-1.168a1 1 0 0 1 1.11-1.664l3 2a1 1 0 0 1 0 1.664l-3 2a1 1 0 0 1 -.558.168z" fill="url(#New_Gradient_Swatch_3-10)"/><path d="m19 20a1 1 0 0 1 -.949-1.316l2-6a1 1 0 0 1 1.9.632l-2 6a1 1 0 0 1 -.951.684z" fill="url(#New_Gradient_Swatch_3-11)"/><path d="m12 22h6v2h-6z" fill="url(#New_Gradient_Swatch_3-6)"/><path d="m20 22h2v2h-2z" fill="url(#New_Gradient_Swatch_3-13)"/><path d="m15 25h12v2h-12z" fill="url(#New_Gradient_Swatch_3-13)"/><path d="m33 25h7v2h-7z" fill="url(#New_Gradient_Swatch_3-15)"/><path d="m15 28h2v2h-2z" fill="url(#New_Gradient_Swatch_3)"/><path d="m19 28h12v2h-12z" fill="url(#New_Gradient_Swatch_3-17)"/><path d="m33 28h4v2h-4z" fill="url(#New_Gradient_Swatch_3-18)"/><path d="m29 25h2v2h-2z" fill="url(#New_Gradient_Swatch_3-19)"/><path d="m13 31h4v2h-4z" fill="url(#New_Gradient_Swatch_3-6)"/><path d="m19 31h2v2h-2z" fill="url(#New_Gradient_Swatch_3-11)"/><path d="m23 31h9v2h-9z" fill="url(#New_Gradient_Swatch_3-22)"/><path d="m15 34h11v2h-11z" fill="url(#New_Gradient_Swatch_3-23)"/><path d="m28 34h2v2h-2z" fill="url(#New_Gradient_Swatch_3-24)"/><path d="m40 28h11v2h-11z" fill="url(#New_Gradient_Swatch_3-25)"/><path d="m42 25h9v2h-9z" fill="url(#New_Gradient_Swatch_3-26)"/></svg>