<svg height="464pt" viewBox="0 0 464 464" width="464pt" xmlns="http://www.w3.org/2000/svg"><path d="m16 0h432c8.835938 0 16 7.164062 16 16v64c0 8.835938-7.164062 16-16 16h-432c-8.835938 0-16-7.164062-16-16v-64c0-8.835938 7.164062-16 16-16zm0 0" fill="#787680"/><path d="m128 32h112v32h-112zm0 0" fill="#ffcd00"/><path d="m16 368h432c8.835938 0 16 7.164062 16 16v64c0 8.835938-7.164062 16-16 16h-432c-8.835938 0-16-7.164062-16-16v-64c0-8.835938 7.164062-16 16-16zm0 0" fill="#787680"/><path d="m128 400h112v32h-112zm0 0" fill="#ffcd00"/><path d="m296 144c0 8.835938-7.164062 16-16 16s-16-7.164062-16-16 7.164062-16 16-16 16 7.164062 16 16zm0 0" fill="#006df0"/><path d="m456 320c0 8.835938-7.164062 16-16 16s-16-7.164062-16-16 7.164062-16 16-16 16 7.164062 16 16zm0 0" fill="#006df0"/><path d="m0 16v64c.0273438 8.824219 7.175781 15.972656 16 16h80c-53.0625 0-96-35.785156-96-80zm0 0" fill="#57565c"/><path d="m0 384v64c.0273438 8.824219 7.175781 15.972656 16 16h80c-53.0625 0-96-35.785156-96-80zm0 0" fill="#57565c"/><path d="m424 24h16v16h-16zm0 0" fill="#f1f2f2"/><path d="m392 24h16v16h-16zm0 0" fill="#f1f2f2"/><path d="m424 56h16v16h-16zm0 0" fill="#f1f2f2"/><path d="m392 56h16v16h-16zm0 0" fill="#f1f2f2"/><path d="m360 24h16v16h-16zm0 0" fill="#f1f2f2"/><path d="m328 24h16v16h-16zm0 0" fill="#f1f2f2"/><path d="m360 56h16v16h-16zm0 0" fill="#f1f2f2"/><path d="m128 312h-16v-64h-80v-96h16v80h80zm0 0" fill="#5eac24"/><path d="m48 312h-16v-48h400v-112h16v128h-400zm0 0" fill="#5eac24"/><path d="m288 312h-16v-96h-160v-64h16v48h160zm0 0" fill="#5eac24"/><path d="m352 152h16v160h-16zm0 0" fill="#ffb655"/><g fill="#f1f2f2"><path d="m328 56h16v16h-16zm0 0"/><path d="m296 24h16v16h-16zm0 0"/><path d="m264 24h16v16h-16zm0 0"/><path d="m296 56h16v16h-16zm0 0"/><path d="m264 56h16v16h-16zm0 0"/><path d="m424 392h16v16h-16zm0 0"/><path d="m392 392h16v16h-16zm0 0"/><path d="m424 424h16v16h-16zm0 0"/><path d="m392 424h16v16h-16zm0 0"/><path d="m360 392h16v16h-16zm0 0"/><path d="m328 392h16v16h-16zm0 0"/><path d="m360 424h16v16h-16zm0 0"/><path d="m328 424h16v16h-16zm0 0"/><path d="m296 392h16v16h-16zm0 0"/><path d="m264 392h16v16h-16zm0 0"/><path d="m296 424h16v16h-16zm0 0"/><path d="m264 424h16v16h-16zm0 0"/><path d="m56 40h48v16h-48zm0 0"/><path d="m56 408h48v16h-48zm0 0"/></g><path d="m192 152h16v160h-16zm0 0" fill="#ffb655"/><path d="m216 144c0 8.835938-7.164062 16-16 16s-16-7.164062-16-16 7.164062-16 16-16 16 7.164062 16 16zm0 0" fill="#ff9811"/><path d="m376 144c0 8.835938-7.164062 16-16 16s-16-7.164062-16-16 7.164062-16 16-16 16 7.164062 16 16zm0 0" fill="#ff9811"/><path d="m456 144c0 8.835938-7.164062 16-16 16s-16-7.164062-16-16 7.164062-16 16-16 16 7.164062 16 16zm0 0" fill="#b2fa09"/><path d="m56 144c0 8.835938-7.164062 16-16 16s-16-7.164062-16-16 7.164062-16 16-16 16 7.164062 16 16zm0 0" fill="#b2fa09"/><path d="m136 144c0 8.835938-7.164062 16-16 16s-16-7.164062-16-16 7.164062-16 16-16 16 7.164062 16 16zm0 0" fill="#b2fa09"/><path d="m216 320c0 8.835938-7.164062 16-16 16s-16-7.164062-16-16 7.164062-16 16-16 16 7.164062 16 16zm0 0" fill="#ff9811"/><path d="m296 320c0 8.835938-7.164062 16-16 16s-16-7.164062-16-16 7.164062-16 16-16 16 7.164062 16 16zm0 0" fill="#b2fa09"/><path d="m376 320c0 8.835938-7.164062 16-16 16s-16-7.164062-16-16 7.164062-16 16-16 16 7.164062 16 16zm0 0" fill="#ff9811"/><path d="m56 320c0 8.835938-7.164062 16-16 16s-16-7.164062-16-16 7.164062-16 16-16 16 7.164062 16 16zm0 0" fill="#b2fa09"/><path d="m136 320c0 8.835938-7.164062 16-16 16s-16-7.164062-16-16 7.164062-16 16-16 16 7.164062 16 16zm0 0" fill="#b2fa09"/><path d="m64 48c0 8.835938-7.164062 16-16 16s-16-7.164062-16-16 7.164062-16 16-16 16 7.164062 16 16zm0 0" fill="#ffcd00"/><path d="m64 416c0 8.835938-7.164062 16-16 16s-16-7.164062-16-16 7.164062-16 16-16 16 7.164062 16 16zm0 0" fill="#ffcd00"/></svg>