<svg height="512" viewBox="0 0 64 64" width="512" xmlns="http://www.w3.org/2000/svg" xmlns:xlink="http://www.w3.org/1999/xlink"><linearGradient id="New_Gradient_Swatch_3" gradientUnits="userSpaceOnUse" x1="11" x2="11" y1="63.904" y2="3.076"><stop offset="0" stop-color="#006df0"/><stop offset="1" stop-color="#00e7f0"/></linearGradient><linearGradient id="New_Gradient_Swatch_3-2" x1="15" x2="15" xlink:href="#New_Gradient_Swatch_3" y1="63.904" y2="3.076"/><linearGradient id="New_Gradient_Swatch_3-3" x1="19" x2="19" xlink:href="#New_Gradient_Swatch_3" y1="63.904" y2="3.076"/><linearGradient id="New_Gradient_Swatch_3-4" x1="20" x2="20" xlink:href="#New_Gradient_Swatch_3" y1="63.904" y2="3.076"/><linearGradient id="New_Gradient_Swatch_3-5" x1="26" x2="26" xlink:href="#New_Gradient_Swatch_3" y1="63.904" y2="3.076"/><linearGradient id="New_Gradient_Swatch_3-6" x1="44.5" x2="44.5" xlink:href="#New_Gradient_Swatch_3" y1="63.904" y2="3.076"/><linearGradient id="New_Gradient_Swatch_3-7" x1="55.5" x2="55.5" xlink:href="#New_Gradient_Swatch_3" y1="63.904" y2="3.076"/><linearGradient id="New_Gradient_Swatch_3-8" x1="50" x2="50" xlink:href="#New_Gradient_Swatch_3" y1="63.904" y2="3.076"/><linearGradient id="New_Gradient_Swatch_3-9" x1="13" x2="13" xlink:href="#New_Gradient_Swatch_3" y1="63.904" y2="3.076"/><linearGradient id="New_Gradient_Swatch_3-10" x1="18.5" x2="18.5" xlink:href="#New_Gradient_Swatch_3" y1="63.904" y2="3.076"/><linearGradient id="New_Gradient_Swatch_3-11" x1="29.5" x2="29.5" xlink:href="#New_Gradient_Swatch_3" y1="63.904" y2="3.076"/><linearGradient id="New_Gradient_Swatch_3-12" x1="24" x2="24" xlink:href="#New_Gradient_Swatch_3" y1="63.904" y2="3.076"/><linearGradient id="New_Gradient_Swatch_3-15" x1="27" x2="27" xlink:href="#New_Gradient_Swatch_3" y1="63.904" y2="3.076"/><linearGradient id="New_Gradient_Swatch_3-16" x1="43.5" x2="43.5" xlink:href="#New_Gradient_Swatch_3" y1="63.904" y2="3.076"/><linearGradient id="New_Gradient_Swatch_3-17" x1="22" x2="22" xlink:href="#New_Gradient_Swatch_3" y1="63.904" y2="3.076"/><linearGradient id="New_Gradient_Swatch_3-18" x1="31" x2="31" xlink:href="#New_Gradient_Swatch_3" y1="63.904" y2="3.076"/><linearGradient id="New_Gradient_Swatch_3-19" x1="41" x2="41" xlink:href="#New_Gradient_Swatch_3" y1="63.904" y2="3.076"/><linearGradient id="New_Gradient_Swatch_3-20" x1="36" x2="36" xlink:href="#New_Gradient_Swatch_3" y1="63.904" y2="3.076"/><linearGradient id="New_Gradient_Swatch_3-22" x1="29" x2="29" xlink:href="#New_Gradient_Swatch_3" y1="63.904" y2="3.076"/><linearGradient id="New_Gradient_Swatch_3-23" x1="4" x2="4" xlink:href="#New_Gradient_Swatch_3" y1="63.904" y2="3.076"/><linearGradient id="New_Gradient_Swatch_3-24" x1="18" x2="18" xlink:href="#New_Gradient_Swatch_3" y1="63.904" y2="3.076"/><linearGradient id="New_Gradient_Swatch_3-25" x1="7" x2="7" xlink:href="#New_Gradient_Swatch_3" y1="63.904" y2="3.076"/><linearGradient id="New_Gradient_Swatch_3-28" x1="61" x2="61" xlink:href="#New_Gradient_Swatch_3" y1="63.904" y2="3.076"/><linearGradient id="New_Gradient_Swatch_3-29" x1="56.5" x2="56.5" xlink:href="#New_Gradient_Swatch_3" y1="63.904" y2="3.076"/><linearGradient id="New_Gradient_Swatch_3-30" x1="46.5" x2="46.5" xlink:href="#New_Gradient_Swatch_3" y1="63.904" y2="3.076"/><linearGradient id="New_Gradient_Swatch_3-31" x1="51" x2="51" xlink:href="#New_Gradient_Swatch_3" y1="63.904" y2="3.076"/><g id="Source_code-4" data-name="Source code"><path d="m10 13h2v2h-2z" fill="url(#New_Gradient_Swatch_3)"/><path d="m14 13h2v2h-2z" fill="url(#New_Gradient_Swatch_3-2)"/><path d="m18 13h2v2h-2z" fill="url(#New_Gradient_Swatch_3-3)"/><path d="m17 41h6v2h-6z" fill="url(#New_Gradient_Swatch_3-4)"/><path d="m25 41h2v2h-2z" fill="url(#New_Gradient_Swatch_3-5)"/><path d="m46 54a1 1 0 0 1 -.707-.293l-3-3a1 1 0 0 1 0-1.414l3-3a1 1 0 0 1 1.414 1.414l-2.293 2.293 2.293 2.293a1 1 0 0 1 -.707 1.707z" fill="url(#New_Gradient_Swatch_3-6)"/><path d="m54 54a1 1 0 0 1 -.707-1.707l2.293-2.293-2.293-2.293a1 1 0 0 1 1.414-1.414l3 3a1 1 0 0 1 0 1.414l-3 3a1 1 0 0 1 -.707.293z" fill="url(#New_Gradient_Swatch_3-7)"/><path d="m49 56a.948.948 0 0 1 -.2-.02 1 1 0 0 1 -.78-1.18l2-10a1 1 0 1 1 1.96.392l-2 10a1 1 0 0 1 -.98.808z" fill="url(#New_Gradient_Swatch_3-8)"/><path d="m12 23v24a1 1 0 0 0 2 0v-24a1 1 0 0 0 -2 0z" fill="url(#New_Gradient_Swatch_3-9)"/><path d="m20.832 21.445a1 1 0 0 0 -1.387-.277l-3 2a1 1 0 0 0 0 1.664l3 2a1 1 0 1 0 1.11-1.664l-1.755-1.168 1.752-1.168a1 1 0 0 0 .28-1.387z" fill="url(#New_Gradient_Swatch_3-10)"/><path d="m27.168 26.555a1 1 0 0 0 1.387.277l3-2a1 1 0 0 0 0-1.664l-3-2a1 1 0 0 0 -1.11 1.664l1.755 1.168-1.752 1.168a1 1 0 0 0 -.28 1.387z" fill="url(#New_Gradient_Swatch_3-11)"/><path d="m25.316 20.051a1 1 0 0 0 -1.265.633l-2 6a1 1 0 0 0 1.9.632l2-6a1 1 0 0 0 -.635-1.265z" fill="url(#New_Gradient_Swatch_3-12)"/><path d="m17 29h6v2h-6z" fill="url(#New_Gradient_Swatch_3-4)"/><path d="m25 29h2v2h-2z" fill="url(#New_Gradient_Swatch_3-5)"/><path d="m21 33h12v2h-12z" fill="url(#New_Gradient_Swatch_3-15)"/><path d="m39 31h9v2h-9z" fill="url(#New_Gradient_Swatch_3-16)"/><path d="m21 37h2v2h-2z" fill="url(#New_Gradient_Swatch_3-17)"/><path d="m25 37h12v2h-12z" fill="url(#New_Gradient_Swatch_3-18)"/><path d="m39 35h4v2h-4z" fill="url(#New_Gradient_Swatch_3-19)"/><path d="m35 31h2v2h-2z" fill="url(#New_Gradient_Swatch_3-20)"/><path d="m50 38a12 12 0 1 0 12 12 12.013 12.013 0 0 0 -12-12zm0 22a10 10 0 1 1 10-10 10.011 10.011 0 0 1 -10 10z" fill="url(#New_Gradient_Swatch_3-8)"/><path d="m36 50h-27a1 1 0 0 1 -1-1v-31h42v18a1 1 0 0 0 2 0v-23a3 3 0 0 0 -3-3h-40a3 3 0 0 0 -3 3v36a3 3 0 0 0 3 3h27a1 1 0 0 0 0-2zm-27-38h40a1 1 0 0 1 1 1v3h-42v-3a1 1 0 0 1 1-1z" fill="url(#New_Gradient_Swatch_3-22)"/><path d="m6 62h-4v-8h4v2h-2v4h2z" fill="url(#New_Gradient_Swatch_3-23)"/><path d="m20 62h-4v-2h2v-4h-2v-2h4z" fill="url(#New_Gradient_Swatch_3-24)"/><path d="m6 57h2v2h-2z" fill="url(#New_Gradient_Swatch_3-25)"/><path d="m10 57h2v2h-2z" fill="url(#New_Gradient_Swatch_3)"/><path d="m14 57h2v2h-2z" fill="url(#New_Gradient_Swatch_3-2)"/><path d="m60 2h2v6h-2z" fill="url(#New_Gradient_Swatch_3-28)"/><path d="m57 8h-1a2 2 0 0 1 -2-2v-2a2 2 0 0 1 2-2h1a2 2 0 0 1 2 2v2a2 2 0 0 1 -2 2zm-1-4v2h1v-2z" fill="url(#New_Gradient_Swatch_3-29)"/><path d="m47 8h-1a2 2 0 0 1 -2-2v-2a2 2 0 0 1 2-2h1a2 2 0 0 1 2 2v2a2 2 0 0 1 -2 2zm-1-4v2h1v-2z" fill="url(#New_Gradient_Swatch_3-30)"/><path d="m50 2h2v6h-2z" fill="url(#New_Gradient_Swatch_3-31)"/></g></svg>