<svg height="512" viewBox="0 0 64 64" width="512" xmlns="http://www.w3.org/2000/svg"><g id="Template"><path d="m61 15v44a2.006 2.006 0 0 1 -2 2h-54a2.006 2.006 0 0 1 -2-2v-44z" fill="#d1e7f8"/><path d="m61 5v10h-58v-10a2.006 2.006 0 0 1 2-2h54a2.006 2.006 0 0 1 2 2z" fill="#005ece"/><path d="m55 7h-24a2 2 0 0 0 0 4h24a2 2 0 0 0 0-4z" fill="#ffcd00"/><path d="m43 37h10v4h-10z" fill="#006df0"/><path d="m27 61h32a2 2 0 0 0 2-2v-32a33.98 33.98 0 0 1 -34 34z" fill="#bddbff"/><path d="m11 45h42v10h-42z" fill="#ffcd00"/><g fill="#2488ff"><path d="m53 24h-20a1 1 0 0 1 0-2h20a1 1 0 0 1 0 2z"/><path d="m53 28h-20a1 1 0 0 1 0-2h20a1 1 0 0 1 0 2z"/><path d="m53 32h-20a1 1 0 0 1 0-2h20a1 1 0 0 1 0 2z"/></g><circle cx="9" cy="9" fill="#d80027" r="2"/><circle cx="16" cy="9" fill="#ffcd00" r="2"/><circle cx="23" cy="9" fill="#5eac24" r="2"/><path d="m11 21h16v12h-16z" fill="#d80027"/><path d="m11 37h10v4h-10z" fill="#006df0"/><path d="m27 37h10v4h-10z" fill="#006df0"/></g></svg>